<svg class="main-svg" xmlns="http://www.w3.org/2000/svg" xmlns:xlink="http://www.w3.org/1999/xlink" width="700" height="500" style="" viewBox="0 0 700 500"><rect x="0" y="0" width="700" height="500" style="fill: rgb(255, 255, 255); fill-opacity: 1;"/><defs id="defs-e36ee6"><g class="clips"><clipPath id="clipe36ee6xyplot" class="plotclip"><rect width="637.8971420239137" height="424.27432195975507"/></clipPath><clipPath class="axesclip" id="clipe36ee6x"><rect x="56.349577136191314" y="0" width="637.8971420239137" height="500"/></clipPath><clipPath class="axesclip" id="clipe36ee6y"><rect x="0" y="34.2470982793818" width="700" height="424.27432195975507"/></clipPath><clipPath class="axesclip" id="clipe36ee6xy"><rect x="56.349577136191314" y="34.2470982793818" width="637.8971420239137" height="424.27432195975507"/></clipPath></g><g class="gradients"/><g class="patterns"/></defs><g class="bglayer"/><g class="layer-below"><g class="imagelayer"/><g class="shapelayer"/></g><g class="cartesianlayer"><g class="subplot xy"><g class="layer-subplot"><g class="shapelayer"/><g class="imagelayer"/></g><g class="minor-gridlayer"><g class="x"/><g class="y"/></g><g class="gridlayer"><g class="x"><path class="xgrid crisp" transform="translate(74.39957713619131,0)" d="M0,34.2470982793818v424.27432195975507" style="stroke: rgb(0, 0, 0); stroke-opacity: 0.1; stroke-width: 0.5px;"/><path class="xgrid crisp" transform="translate(226.1995771361913,0)" d="M0,34.2470982793818v424.27432195975507" style="stroke: rgb(0, 0, 0); stroke-opacity: 0.1; stroke-width: 0.5px;"/><path class="xgrid crisp" transform="translate(377.9895771361913,0)" d="M0,34.2470982793818v424.27432195975507" style="stroke: rgb(0, 0, 0); stroke-opacity: 0.1; stroke-width: 0.5px;"/><path class="xgrid crisp" transform="translate(529.7895771361913,0)" d="M0,34.2470982793818v424.27432195975507" style="stroke: rgb(0, 0, 0); stroke-opacity: 0.1; stroke-width: 0.5px;"/><path class="xgrid crisp" transform="translate(681.5795771361913,0)" d="M0,34.2470982793818v424.27432195975507" style="stroke: rgb(0, 0, 0); stroke-opacity: 0.1; stroke-width: 0.5px;"/></g><g class="y"><path class="ygrid crisp" transform="translate(0,389.3370982793818)" d="M56.349577136191314,0h637.8971420239137" style="stroke: rgb(0, 0, 0); stroke-opacity: 0.1; stroke-width: 0.5px;"/><path class="ygrid crisp" transform="translate(0,274.9770982793818)" d="M56.349577136191314,0h637.8971420239137" style="stroke: rgb(0, 0, 0); stroke-opacity: 0.1; stroke-width: 0.5px;"/><path class="ygrid crisp" transform="translate(0,160.61709827938182)" d="M56.349577136191314,0h637.8971420239137" style="stroke: rgb(0, 0, 0); stroke-opacity: 0.1; stroke-width: 0.5px;"/><path class="ygrid crisp" transform="translate(0,46.2570982793818)" d="M56.349577136191314,0h637.8971420239137" style="stroke: rgb(0, 0, 0); stroke-opacity: 0.1; stroke-width: 0.5px;"/></g></g><g class="zerolinelayer"/><g class="layer-between"><g class="shapelayer"/><g class="imagelayer"/></g><path class="xlines-below"/><path class="ylines-below"/><g class="overlines-below"/><g class="xaxislayer-below"/><g class="yaxislayer-below"/><g class="overaxes-below"/><g class="overplot"><g class="xy" transform="translate(56.349577136191314,34.2470982793818)" clip-path="url(#clipe36ee6xyplot)"><g class="scatterlayer mlayer"><g class="trace scatter tracea28caf" style="stroke-miterlimit: 2; opacity: 1;"><g class="fills"/><g class="errorbars"/><g class="lines"><path class="js-line" d="M18.05,12.01L18.43,12.01L18.43,69.19L19.26,12.01L19.27,12.01L19.87,69.19L20.02,12.01L20.03,12.01L20.32,12.01L20.32,12.01L20.33,69.19L21.08,12.01L21.09,69.19L21.92,12.01L21.92,12.01L21.93,12.01L22.37,69.19L22.68,12.01L22.69,12.01L22.9,12.01L22.9,12.01L22.91,69.19L23.13,69.19L23.14,12.01L23.96,69.19L23.97,69.19L24.42,69.19L24.43,12.01L25.25,69.19L25.26,69.19L26.09,12.01L26.1,69.19L26.85,12.01L26.86,69.19L27.68,12.01L27.69,12.01L28.59,69.19L28.6,69.19L28.6,12.01L29.35,12.01L29.36,12.01L29.51,12.01L29.51,69.19L30.34,12.01L30.35,69.19L31.17,12.01L31.18,12.01L31.4,12.01L31.4,12.01L31.41,69.19L32.24,12.01L32.25,69.19L32.77,69.19L32.78,12.01L33.45,69.19L33.53,12.01L33.54,12.01L33.98,69.19L34.29,12.01L34.3,12.01L35.12,69.19L35.12,69.19L35.13,69.19L35.5,69.19L35.51,12.01L35.73,12.01L35.74,69.19L36.41,12.01L36.49,69.19L36.5,69.19L36.72,69.19L36.72,12.01L37.55,69.19L37.56,69.19L38.08,69.19L38.08,69.19L38.09,12.01L38.92,69.19L38.93,12.01L39.15,12.01L39.15,69.19L39.45,69.19L39.46,12.01L39.68,12.01L39.68,69.19L40.51,12.01L40.52,69.19L41.27,12.01L41.28,69.19L41.5,69.19L41.51,12.01L42.18,69.19L42.26,12.01L42.27,12.01L42.94,69.19L43.02,12.01L43.03,12.01L43.85,69.19L43.86,69.19L44.61,69.19L44.62,12.01L45.44,69.19L45.45,69.19L45.67,12.01L46.2,69.19L46.21,69.19L46.66,12.01L46.96,69.19L46.97,69.19L47.19,69.19L47.2,12.01L48.02,69.19L48.03,69.19L48.03,12.01L48.78,12.01L48.79,69.19L49.01,12.01L49.54,69.19L49.55,69.19L49.85,69.19L49.85,12.01L50.68,69.19L50.69,69.19L51.14,12.01L51.44,69.19L51.45,69.19L51.74,12.01L52.2,69.19L52.21,69.19L52.88,69.19L52.88,69.19L52.89,12.01L53.19,126.37L53.72,69.19L53.73,69.19L54.1,69.19L54.1,12.01L54.55,69.19L54.85,12.01L54.86,12.01L54.86,69.19L55.61,69.19L55.62,69.19L55.62,12.01L56.37,69.19L56.38,69.19L56.68,69.19L56.69,12.01L57.59,69.19L57.6,69.19L58.65,69.19L58.66,12.01L59.41,126.37L59.48,69.19L59.49,69.19L62.07,69.19L62.07,12.01L62.9,69.19L62.91,69.19L63.96,69.19L63.96,69.19L63.97,12.01L64.8,69.19L64.81,69.19L65.03,12.01L65.56,69.19L65.57,69.19L67.38,69.19L67.39,12.01L68.21,69.19L68.21,69.19L68.22,69.19L71.71,69.19L71.71,12.01L71.86,12.01L71.86,69.19L72.01,69.19L72.02,12.01L72.84,69.19L72.84,69.19L72.85,69.19L73.15,69.19L73.16,12.01L74.06,69.19L74.07,69.19L75.73,69.19L75.74,12.01L76.56,69.19L76.56,69.19L76.57,69.19L79.75,69.19L79.76,126.37L80.66,69.19L80.67,69.19L81.34,69.19L81.34,69.19L81.35,126.37L82.18,69.19L82.19,69.19L82.63,69.19L82.63,69.19L82.64,126.37L83.47,69.19L83.48,69.19L85.29,69.19L85.3,126.37L86.12,69.19L86.13,69.19L87.11,69.19L87.11,69.19L87.12,12.01L87.34,126.37L87.87,69.19L87.88,12.01L88.02,126.37L88.67,69.19L88.68,69.19L91.06,69.19L91.07,126.37L91.89,69.19L91.89,69.19L91.9,69.19L94.78,69.19L94.79,126.37L95.61,69.19L95.61,69.19L95.62,69.19L95.76,126.37L96.37,69.19L96.38,69.19L98.35,69.19L98.35,126.37L99.18,69.19L99.19,69.19L99.33,126.37L99.94,69.19L99.95,69.19L100.39,69.19L100.39,69.19L100.4,126.37L101.23,69.19L101.24,69.19L102.6,69.19L102.6,126.37L103.28,69.19L103.35,126.37L103.36,126.37L104.19,69.19L104.2,69.19L106.01,69.19L106.02,126.37L106.84,69.19L106.85,69.19L106.85,126.37L107.6,69.19L107.61,69.19L108.14,69.19L108.14,126.37L108.44,126.37L108.45,69.19L109.73,69.19L109.74,126.37L110.56,69.19L110.56,69.19L110.57,69.19L110.94,69.19L110.94,69.19L110.95,126.37L111.17,126.37L111.18,69.19L111.48,69.19L111.48,126.37L112.16,69.19L112.23,126.37L112.24,126.37L112.46,126.37L112.47,69.19L113.3,126.37L113.3,69.19L113.75,69.19L113.75,69.19L113.76,126.37L114.51,69.19L114.52,126.37L115.42,69.19L115.43,69.19L115.65,126.37L116.18,69.19L116.19,69.19L117.09,69.19L117.1,126.37L117.4,126.37L117.4,69.19L117.93,69.19L117.93,126.37L118.76,69.19L118.77,69.19L119.6,126.37L119.6,69.19L119.82,69.19L119.82,69.19L119.83,126.37L120.51,69.19L120.58,126.37L120.59,126.37L121.27,69.19L121.34,126.37L121.35,126.37L122.18,69.19L122.18,126.37L122.4,126.37L122.4,126.37L122.41,69.19L123.24,126.37L123.25,69.19L123.62,69.19L123.63,126.37L123.85,126.37L123.85,69.19L124.61,126.37L124.61,69.19L124.99,69.19L124.99,126.37L125.82,69.19L125.83,126.37L126.12,126.37L126.12,126.37L126.13,69.19L126.28,69.19L126.28,126.37L126.43,126.37L126.44,69.19L126.73,69.19L126.74,126.37L127.57,69.19L127.57,126.37L128.17,126.37L128.17,126.37L128.18,69.19L129.01,126.37L129.02,126.37L129.24,69.19L129.77,126.37L129.78,126.37L130.07,126.37L130.08,69.19L130.98,126.37L130.99,126.37L131.66,69.19L131.74,126.37L131.75,126.37L132.5,69.19L132.51,126.37L132.95,126.37L132.95,126.37L132.96,69.19L133.11,69.19L133.11,126.37L133.33,126.37L133.33,126.37L133.34,69.19L134.17,126.37L134.18,126.37L134.78,69.19L134.93,126.37L134.94,126.37L135.76,69.19L135.76,69.19L135.77,126.37L136.6,69.19L136.61,126.37L136.9,69.19L137.36,126.37L137.37,126.37L138.19,69.19L138.2,126.37L138.5,126.37L138.5,69.19L138.65,69.19L138.65,126.37L138.87,126.37L138.87,126.37L138.88,69.19L139.71,126.37L139.72,126.37L140.47,69.19L140.48,126.37L140.85,69.19L141.23,126.37L141.24,126.37L141.99,69.19L141.99,126.37L142,126.37L142.44,126.37L142.45,69.19L143.35,126.37L143.36,126.37L143.73,126.37L143.74,69.19L144.64,126.37L144.64,126.37L144.65,69.19L144.87,69.19L144.88,126.37L145.1,126.37L145.11,183.55L145.93,69.19L145.93,69.19L145.94,126.37L146.16,126.37L146.17,69.19L146.62,69.19L146.62,126.37L146.77,126.37L146.78,69.19L147.6,126.37L147.6,126.37L147.61,126.37L147.91,126.37L147.91,69.19L148.74,126.37L148.75,126.37L148.97,69.19L149.5,126.37L149.51,126.37L149.96,126.37L149.96,69.19L150.79,126.37L150.8,126.37L152.61,126.37L152.62,69.19L153.52,126.37L153.52,126.37L153.53,126.37L154.81,126.37L154.81,126.37L154.82,69.19L155.65,126.37L155.66,126.37L156.33,126.37L156.34,69.19L157.24,126.37L157.25,126.37L157.77,126.37L157.77,126.37L157.78,69.19L158.61,126.37L158.62,69.19L159.44,126.37L159.44,126.37L159.45,126.37L164.07,126.37L164.08,69.19L164.98,126.37L164.98,126.37L164.99,126.37L165.51,126.37L165.51,126.37L165.52,183.55L166.35,126.37L166.36,126.37L171.51,126.37L171.52,69.19L172.34,126.37L172.35,126.37L172.57,126.37L172.57,126.37L172.58,69.19L173.41,126.37L173.42,126.37L174.32,126.37L174.33,183.55L175.15,126.37L175.15,126.37L175.16,126.37L178.64,126.37L178.64,126.37L178.65,69.19L179.48,126.37L179.49,126.37L180.09,126.37L180.09,183.55L180.92,69.19L180.93,126.37L185.55,126.37L185.56,183.55L186.38,126.37L186.39,126.37L186.54,126.37L186.55,183.55L187.45,126.37L187.46,126.37L190.41,126.37L190.42,183.55L191.24,126.37L191.24,126.37L191.25,183.55L191.4,183.55L191.4,126.37L192.91,126.37L192.91,126.37L192.92,183.55L193.75,126.37L193.76,126.37L194.13,183.55L194.51,126.37L194.52,126.37L195.11,126.37L195.11,126.37L195.12,183.55L195.95,126.37L195.96,126.37L196.87,126.37L196.88,183.55L197.7,126.37L197.7,183.55L198.53,126.37L198.54,126.37L198.83,126.37L198.83,126.37L198.84,183.55L199.67,126.37L199.68,126.37L200.5,183.55L200.5,183.55L200.51,183.55L201.34,126.37L201.35,126.37L201.79,183.55L202.1,126.37L202.11,126.37L202.86,183.55L202.86,126.37L202.87,126.37L203.08,126.37L203.08,126.37L203.09,183.55L203.92,126.37L203.93,126.37L204.53,126.37L204.53,183.55L205.36,126.37L205.37,126.37L206.5,126.37L206.51,183.55L207.33,126.37L207.33,126.37L207.34,126.37L207.49,126.37L207.49,183.55L208.24,126.37L208.24,126.37L208.25,183.55L209.08,126.37L209.09,126.37L209.91,183.55L209.91,183.55L209.92,126.37L210.67,183.55L210.67,183.55L210.68,126.37L210.83,126.37L210.83,183.55L211.66,126.37L211.67,183.55L212.49,126.37L212.5,126.37L213.25,183.55L213.25,183.55L213.26,126.37L213.41,126.37L213.41,183.55L213.86,183.55L213.87,126.37L214.39,126.37L214.4,183.55L215.23,126.37L215.23,126.37L215.24,126.37L215.91,183.55L215.99,126.37L216,126.37L216.82,183.55L216.83,126.37L217.05,126.37L217.06,183.55L217.28,183.55L217.28,126.37L217.88,183.55L218.03,126.37L218.04,126.37L218.04,183.55L218.79,183.55L218.8,183.55L219.63,126.37L219.64,183.55L220.54,126.37L220.55,126.37L221,126.37L221,183.55L221.3,183.55L221.31,126.37L221.53,126.37L221.53,183.55L221.83,183.55L221.84,126.37L222.66,183.55L222.67,183.55L222.82,183.55L222.82,126.37L223.04,126.37L223.04,126.37L223.05,183.55L223.65,183.55L223.66,126.37L224.49,183.55L224.49,183.55L224.5,183.55L224.87,183.55L224.87,126.37L225.02,126.37L225.03,183.55L225.47,183.55L225.47,183.55L225.48,126.37L225.63,126.37L225.63,183.55L225.85,183.55L225.85,183.55L225.86,126.37L226.23,183.55L226.61,126.37L226.62,126.37L227.45,183.55L227.45,126.37L228.28,183.55L228.29,183.55L229.12,126.37L229.12,183.55L229.57,183.55L229.58,126.37L230.33,183.55L230.34,126.37L231.17,183.55L231.17,126.37L231.32,126.37L231.33,183.55L231.85,126.37L232.08,183.55L232.09,183.55L232.84,126.37L232.84,183.55L232.85,183.55L233.67,183.55L233.68,126.37L234.05,126.37L234.06,183.55L234.73,126.37L234.81,183.55L234.82,183.55L235.19,126.37L235.57,183.55L235.58,183.55L236.17,183.55L236.17,183.55L236.18,126.37L237.01,183.55L237.02,126.37L237.31,126.37L237.31,126.37L237.32,183.55L237.92,126.37L238.07,183.55L238.08,183.55L238.76,183.55L238.76,126.37L239.59,183.55L239.6,183.55L239.97,183.55L239.98,126.37L240.65,183.55L240.73,126.37L240.74,126.37L241.56,183.55L241.56,183.55L241.57,183.55L242.09,183.55L242.09,183.55L242.1,126.37L242.47,240.73L242.85,183.55L242.86,126.37L243.69,183.55L243.7,183.55L244.52,183.55L244.52,183.55L244.53,126.37L244.68,126.37L244.68,183.55L245.05,183.55L245.05,183.55L245.06,126.37L245.21,126.37L245.21,183.55L245.74,183.55L245.75,240.73L246.57,183.55L246.57,183.55L246.58,183.55L247.03,183.55L247.04,126.37L247.86,183.55L247.86,183.55L247.87,183.55L248.24,183.55L248.24,183.55L248.25,126.37L249.15,183.55L249.15,183.55L249.16,126.37L249.99,183.55L250,183.55L250.6,183.55L250.6,126.37L251.35,183.55L251.35,183.55L251.36,126.37L252.19,183.55L252.2,183.55L252.57,183.55L252.58,126.37L253.4,183.55L253.4,183.55L253.41,183.55L254.09,183.55L254.09,126.37L254.92,183.55L254.93,183.55L255.07,126.37L255.68,183.55L255.69,183.55L256.97,183.55L256.98,240.73L257.8,183.55L257.81,183.55L258.34,183.55L258.34,126.37L259.17,183.55L259.18,183.55L262.97,183.55L262.97,240.73L263.73,126.37L263.73,240.73L264.64,183.55L264.64,183.55L264.65,183.55L264.94,183.55L264.95,240.73L265.77,183.55L265.77,183.55L265.78,183.55L266.61,183.55L266.62,240.73L267.44,183.55L267.44,183.55L267.45,183.55L267.82,183.55L267.82,183.55L267.83,240.73L267.98,240.73L267.98,183.55L272.76,183.55L272.77,126.37L273.59,183.55L273.6,183.55L274.2,183.55L274.21,240.73L275.03,183.55L275.03,183.55L275.04,240.73L275.87,183.55L275.88,183.55L277.31,183.55L277.32,240.73L278.22,183.55L278.23,183.55L278.6,240.73L278.98,183.55L278.99,183.55L279.74,183.55L279.75,240.73L280.57,183.55L280.57,183.55L280.58,183.55L281.49,183.55L281.49,240.73L282.32,183.55L282.33,183.55L283.15,240.73L283.16,240.73L283.99,183.55L284,183.55L284.22,240.73L284.75,183.55L284.76,183.55L286.42,183.55L286.43,240.73L287.25,183.55L287.25,183.55L287.26,183.55L287.71,183.55L287.72,240.73L288.54,183.55L288.54,183.55L288.55,183.55L289.15,183.55L289.16,240.73L289.98,183.55L289.99,183.55L290.52,240.73L290.74,183.55L290.75,183.55L291.5,240.73L291.5,240.73L291.51,183.55L291.73,183.55L291.74,240.73L292.57,183.55L292.57,183.55L292.58,183.55L293.4,240.73L293.41,183.55L293.71,183.55L293.71,240.73L294.54,183.55L294.55,183.55L295.75,183.55L295.75,183.55L295.76,240.73L295.91,240.73L295.91,183.55L297.2,183.55L297.2,240.73L297.35,240.73L297.36,183.55L297.73,183.55L297.74,240.73L298.49,183.55L298.49,240.73L298.5,240.73L299.32,183.55L299.33,183.55L299.7,183.55L299.71,240.73L300.46,126.37L300.54,183.55L300.54,240.73L301.45,183.55L301.45,240.73L302.13,183.55L302.2,240.73L302.21,240.73L302.21,183.55L302.96,183.55L302.97,240.73L303.8,183.55L303.81,183.55L304.48,240.73L304.56,183.55L304.57,183.55L305.24,183.55L305.25,240.73L306.08,183.55L306.08,240.73L306.84,183.55L306.84,240.73L307.06,240.73L307.06,240.73L307.07,183.55L307.29,183.55L307.3,240.73L308.2,183.55L308.21,183.55L309.03,240.73L309.04,240.73L309.64,183.55L309.79,240.73L309.8,240.73L309.95,183.55L310.55,240.73L310.56,240.73L311.46,183.55L311.47,183.55L312.3,240.73L312.31,240.73L312.83,240.73L312.84,183.55L313.06,183.55L313.07,240.73L313.51,240.73L313.51,240.73L313.52,183.55L314.35,240.73L314.36,240.73L315.11,183.55L315.12,240.73L315.94,183.55L315.94,183.55L315.95,240.73L316.63,183.55L316.7,240.73L316.71,240.73L317.39,183.55L317.46,240.73L317.47,240.73L318.07,240.73L318.08,183.55L318.3,183.55L318.3,240.73L318.68,183.55L319.05,240.73L319.06,240.73L319.43,183.55L319.81,240.73L319.82,240.73L320.04,240.73L320.05,183.55L320.8,240.73L320.81,183.55L321.18,183.55L321.19,240.73L321.48,240.73L321.48,240.73L321.49,183.55L322.39,240.73L322.39,240.73L322.4,183.55L322.7,183.55L322.71,240.73L323.38,183.55L323.46,240.73L323.47,240.73L325.58,240.73L325.59,183.55L326.27,240.73L326.34,183.55L326.35,183.55L327.25,240.73L327.26,240.73L327.71,240.73L327.71,183.55L328.54,240.73L328.55,183.55L329.38,240.73L329.38,240.73L329.39,240.73L332.11,240.73L332.12,183.55L332.87,240.73L332.88,183.55L333.55,297.91L333.78,240.73L333.79,240.73L334.69,183.55L334.7,240.73L335.52,240.73L335.52,240.73L335.53,183.55L336.36,240.73L336.37,183.55L337.19,240.73L337.19,240.73L337.2,240.73L337.42,240.73L337.43,183.55L338.26,240.73L338.26,240.73L338.27,240.73L338.64,183.55L339.02,240.73L339.03,240.73L339.77,240.73L339.77,240.73L339.78,183.55L340.61,240.73L340.62,240.73L343.57,240.73L343.58,297.91L344.4,240.73L344.4,240.73L344.41,240.73L350.7,240.73L350.7,240.73L350.71,297.91L351.54,240.73L351.55,240.73L355.33,240.73L355.33,240.73L355.34,297.91L355.64,297.91L355.64,240.73L356.17,240.73L356.18,297.91L357,240.73L357,240.73L357.01,240.73L357.91,240.73L357.91,240.73L357.92,297.91L358.75,240.73L358.76,240.73L360.34,240.73L360.34,240.73L360.35,297.91L361.25,240.73L361.25,240.73L361.26,240.73L363.15,240.73L363.16,297.91L363.98,240.73L363.99,240.73L364.21,240.73L364.21,240.73L364.22,297.91L365.05,240.73L365.06,240.73L367.48,240.73L367.48,297.91L368.39,240.73L368.4,240.73L370.89,240.73L370.89,240.73L370.9,297.91L371.8,240.73L371.8,240.73L371.81,240.73L372.41,297.91L372.56,240.73L372.57,240.73L373.32,240.73L373.33,297.91L374.08,240.73L374.09,297.91L374.91,240.73L374.92,240.73L375.37,240.73L375.38,297.91L376.28,240.73L376.29,240.73L376.89,240.73L376.9,297.91L377.72,240.73L377.72,240.73L377.73,240.73L379.42,240.73L379.42,297.91L380.23,240.73L380.24,240.73L380.46,240.73L380.46,297.91L380.61,297.91L380.62,240.73L380.99,240.73L380.99,297.91L381.82,240.73L381.83,240.73L383.26,240.73L383.26,240.73L383.27,297.91L383.95,240.73L384.02,297.91L384.03,297.91L384.93,240.73L384.93,240.73L384.94,240.73L386,240.73L386,297.91L386.76,240.73L386.76,297.91L387.59,240.73L387.6,297.91L388.42,240.73L388.42,240.73L388.43,240.73L389.03,240.73L389.04,297.91L389.94,240.73L389.94,240.73L389.95,240.73L390.32,240.73L390.33,297.91L391.16,240.73L391.16,240.73L391.17,240.73L391.31,297.91L391.92,240.73L391.93,240.73L392.14,297.91L392.68,240.73L392.69,240.73L392.9,240.73L392.9,240.73L392.91,297.91L393.59,240.73L393.66,297.91L393.67,297.91L394.5,240.73L394.5,297.91L395.33,240.73L395.34,240.73L396.09,297.91L396.1,240.73L396.55,240.73L396.55,297.91L397.3,240.73L397.3,240.73L397.31,297.91L398.14,240.73L398.15,297.91L399.05,240.73L399.06,297.91L399.96,240.73L399.97,240.73L400.57,240.73L400.58,297.91L401.25,240.73L401.33,297.91L401.34,297.91L402.16,240.73L402.17,240.73L402.39,240.73L402.4,297.91L403.07,240.73L403.15,297.91L403.16,297.91L403.53,240.73L403.91,297.91L403.92,297.91L404.74,240.73L404.74,240.73L404.75,240.73L405.43,297.91L405.5,240.73L405.51,240.73L405.66,240.73L405.67,297.91L405.96,297.91L405.96,240.73L406.72,297.91L406.72,240.73L407.55,297.91L407.56,240.73L407.78,240.73L407.79,297.91L408.69,297.91L408.7,240.73L409.07,240.73L409.08,297.91L409.9,240.73L409.9,240.73L409.91,240.73L410.28,240.73L410.28,240.73L410.29,297.91L411.12,240.73L411.13,297.91L411.88,240.73L411.88,297.91L411.89,297.91L412.48,297.91L412.48,297.91L412.49,240.73L412.71,240.73L412.72,297.91L413.02,297.91L413.02,240.73L413.7,297.91L413.77,240.73L413.78,240.73L414.53,297.91L414.53,297.91L414.54,240.73L415.37,297.91L415.38,297.91L416.13,240.73L416.14,297.91L416.66,240.73L416.89,297.91L416.9,297.91L417.65,240.73L417.65,297.91L417.66,297.91L418.18,297.91L418.18,240.73L418.86,297.91L418.93,240.73L418.94,240.73L418.94,297.91L419.69,297.91L419.7,297.91L419.92,297.91L419.93,240.73L420.83,297.91L420.83,297.91L420.84,297.91L421.59,297.91L421.6,240.73L422.5,297.91L422.5,297.91L422.51,240.73L423.34,297.91L423.35,297.91L423.79,297.91L423.79,297.91L423.8,240.73L424.7,297.91L424.7,297.91L424.71,297.91L425.01,297.91L425.02,240.73L425.24,240.73L425.24,297.91L425.99,297.91L425.99,297.91L426,240.73L426.75,297.91L426.75,297.91L426.76,240.73L427.66,297.91L427.66,297.91L427.67,297.91L428.12,297.91L428.13,240.73L428.8,297.91L428.88,240.73L428.89,240.73L429.71,297.91L429.71,297.91L429.72,297.91L430.24,297.91L430.24,297.91L430.25,240.73L431.08,297.91L431.09,297.91L432.29,297.91L432.29,297.91L432.3,240.73L433.05,297.91L433.06,240.73L433.89,297.91L433.9,240.73L434.72,297.91L434.73,240.73L435.56,297.91L435.56,297.91L435.57,297.91L436.54,297.91L436.54,297.91L436.55,240.73L437.3,297.91L437.3,297.91L437.31,240.73L437.53,240.73L437.54,297.91L439.96,297.91L439.97,355.09L440.79,297.91L440.79,297.91L440.8,297.91L441.86,297.91L441.86,240.73L442.69,297.91L442.7,297.91L443.15,240.73L443.45,297.91L443.46,297.91L443.75,297.91L443.75,297.91L443.76,240.73L443.91,240.73L443.91,297.91L444.51,297.91L444.51,297.91L444.52,240.73L445.35,297.91L445.36,297.91L447.7,297.91L447.71,355.09L448.53,297.91L448.54,297.91L448.69,240.73L449.29,297.91L449.3,297.91L451.88,297.91L451.88,240.73L452.71,297.91L452.72,297.91L453.77,297.91L453.78,355.09L454.61,297.91L454.62,297.91L455.82,297.91L455.83,355.09L456.66,297.91L456.66,297.91L456.67,297.91L457.42,297.91L457.42,240.73L458.25,297.91L458.26,297.91L459.62,297.91L459.62,355.09L460.45,297.91L460.46,297.91L460.69,297.91L460.69,355.09L461.44,297.91L461.45,355.09L462.35,297.91L462.36,297.91L462.65,297.91L462.66,355.09L463.5,297.91L463.51,297.91L465.92,297.91L465.92,355.09L466.75,297.91L466.76,297.91L467.59,297.91L467.59,355.09L468.42,297.91L468.43,297.91L469.41,297.91L469.41,355.09L470.32,297.91L470.33,297.91L470.47,355.09L471.08,297.91L471.09,297.91L471.38,297.91L471.39,355.09L472.21,297.91L472.22,297.91L472.52,355.09L472.97,297.91L472.98,297.91L473.58,355.09L473.73,297.91L473.74,297.91L474.04,297.91L474.04,355.09L474.8,297.91L474.8,355.09L475.64,297.91L475.65,297.91L476.31,297.91L476.31,297.91L476.32,355.09L477,297.91L477.07,355.09L477.08,355.09L477.91,297.91L477.92,297.91L478.59,297.91L478.6,355.09L479.42,297.91L479.43,297.91L480.34,297.91L480.34,355.09L481.17,297.91L481.18,355.09L482,297.91L482.01,297.91L482.69,297.91L482.7,355.09L483.07,355.09L483.08,297.91L483.37,297.91L483.38,355.09L484.21,297.91L484.21,297.91L484.22,297.91L484.81,297.91L484.81,297.91L484.82,355.09L485.65,297.91L485.66,297.91L485.95,297.91L485.95,297.91L485.96,355.09L486.86,297.91L486.86,297.91L486.87,355.09L487.62,297.91L487.62,297.91L487.63,355.09L488.53,297.91L488.53,297.91L488.54,355.09L489.44,297.91L489.44,297.91L489.45,297.91L490.2,355.09L490.2,355.09L490.21,297.91L490.81,297.91L490.82,355.09L491.04,355.09L491.05,297.91L491.42,297.91L491.43,355.09L491.8,355.09L491.8,297.91L492.4,297.91L492.4,297.91L492.41,355.09L493.24,297.91L493.25,297.91L494.07,355.09L494.07,355.09L494.08,297.91L494.83,355.09L494.83,355.09L494.84,297.91L495.67,355.09L495.68,355.09L496.28,297.91L496.43,355.09L496.44,355.09L497.26,297.91L497.27,297.91L498.1,355.09L498.1,297.91L498.78,355.09L498.85,297.91L498.86,297.91L498.86,355.09L499.61,355.09L499.62,355.09L500.3,297.91L500.37,355.09L500.38,355.09L500.83,297.91L501.13,355.09L501.14,355.09L501.89,355.09L501.9,297.91L502.2,297.91L502.2,355.09L503.03,297.91L503.04,355.09L503.56,297.91L503.79,355.09L503.8,355.09L504.62,355.09L504.62,355.09L504.63,297.91L505.38,355.09L505.38,355.09L505.39,297.91L506.37,412.27L506.38,297.91L507.13,355.09L507.14,297.91L507.51,297.91L507.52,355.09L508.12,355.09L508.12,297.91L508.87,355.09L508.87,355.09L508.88,297.91L509.71,355.09L509.72,297.91L510.32,355.09L510.47,297.91L510.48,297.91L510.7,297.91L510.7,355.09L511.15,355.09L511.16,297.91L512.06,355.09L512.07,297.91L512.9,355.09L512.9,355.09L512.91,355.09L513.5,355.09L513.5,355.09L513.51,297.91L514.34,355.09L514.35,355.09L514.57,355.09L514.57,297.91L515.4,355.09L515.41,355.09L515.7,297.91L516.16,355.09L516.17,355.09L516.77,355.09L516.77,297.91L517.6,355.09L517.61,355.09L518.21,355.09L518.22,297.91L518.97,355.09L518.98,297.91L519.8,355.09L519.8,355.09L519.81,355.09L521.4,355.09L521.4,297.91L522.23,355.09L522.24,355.09L522.76,355.09L522.76,355.09L522.77,297.91L523.6,355.09L523.61,355.09L523.75,297.91L524.36,355.09L524.37,355.09L524.89,355.09L524.9,297.91L525.72,355.09L525.72,355.09L525.73,355.09L526.41,355.09L526.41,297.91L527.24,355.09L527.25,297.91L528,355.09L528.01,297.91L528.91,355.09L528.92,297.91L529.82,355.09L529.83,355.09L530.88,355.09L530.88,355.09L530.89,297.91L531.72,355.09L531.73,355.09L532.17,355.09L532.17,355.09L532.18,297.91L533.01,355.09L533.02,355.09L533.16,297.91L533.77,355.09L533.78,355.09L536.27,355.09L536.27,355.09L536.28,297.91L537.11,355.09L537.12,355.09L538.25,355.09L538.25,297.91L539.08,355.09L539.09,355.09L539.31,355.09L539.32,412.27L540.14,355.09L540.14,355.09L540.15,355.09L547.05,355.09L547.06,412.27L547.88,355.09L547.89,355.09L550.85,355.09L550.85,412.27L551.68,355.09L551.69,355.09L552.82,355.09L552.83,412.27L553.65,297.91L553.65,297.91L553.66,355.09L554.18,355.09L554.18,355.09L554.19,412.27L555.02,355.09L555.03,355.09L556.01,355.09L556.01,412.27L556.84,355.09L556.85,355.09L558.74,355.09L558.75,412.27L559.57,355.09L559.57,355.09L559.58,355.09L561.24,355.09L561.24,355.09L561.25,412.27L562.08,355.09L562.09,355.09L563.06,355.09L563.06,355.09L563.07,412.27L563.9,355.09L563.91,412.27L564.73,355.09L564.73,355.09L564.74,355.09L565.87,355.09L565.87,355.09L565.88,412.27L566.71,355.09L566.72,355.09L566.94,355.09L566.94,412.27L567.77,355.09L567.78,355.09L568.98,355.09L568.98,355.09L568.99,412.27L569.82,355.09L569.83,355.09L570.12,355.09L570.12,355.09L570.13,412.27L570.96,355.09L570.97,355.09L571.19,355.09L571.19,412.27L571.49,412.27L571.5,355.09L572.25,412.27L572.26,355.09L572.4,412.27L573.01,355.09L573.02,355.09L573.84,412.27L573.85,355.09L574.45,355.09L574.46,412.27L575.28,355.09L575.28,355.09L575.29,355.09L575.59,355.09L575.6,412.27L576.42,355.09L576.42,355.09L576.43,355.09L576.8,355.09L576.81,412.27L577.56,355.09L577.57,412.27L578.39,355.09L578.4,355.09L579.08,355.09L579.09,412.27L579.91,355.09L579.91,355.09L579.92,355.09L580.75,412.27L580.76,412.27L580.98,412.27L580.98,355.09L581.36,355.09L581.36,412.27L582.19,355.09L582.2,412.27L582.42,412.27L582.43,355.09L583.18,412.27L583.19,355.09L583.86,412.27L583.94,355.09L583.95,355.09L584.16,355.09L584.16,355.09L584.17,412.27L584.39,412.27L584.4,355.09L584.62,412.27L585.15,355.09L585.16,355.09L585.83,412.27L585.91,355.09L585.92,355.09L586.74,412.27L586.74,412.27L586.75,412.27L587.35,355.09L587.5,412.27L587.51,412.27L588.34,355.09L588.35,355.09L589.17,412.27L589.17,412.27L589.18,412.27L589.33,412.27L589.33,355.09L589.93,412.27L590.08,355.09L590.09,355.09L590.46,355.09L590.46,355.09L590.47,412.27L590.77,412.27L590.77,355.09L591.37,412.27L591.52,355.09L591.53,355.09L591.53,412.27L592.28,412.27L592.29,412.27L592.29,355.09L593.04,412.27L593.05,355.09L593.65,412.27L593.8,355.09L593.81,355.09L594.11,355.09L594.11,412.27L594.79,355.09L594.86,412.27L594.87,412.27L595.62,355.09L595.62,355.09L595.63,412.27L596.46,355.09L596.47,412.27L597.22,412.27L597.23,355.09L597.98,412.27L597.99,355.09L598.43,412.27L598.74,355.09L598.75,355.09L599.57,412.27L599.58,412.27L600.33,355.09L600.34,412.27L601.09,355.09L601.1,412.27L602,355.09L602.01,412.27L602.68,355.09L602.76,412.27L602.77,412.27L603.59,355.09L603.59,355.09L603.6,355.09L603.82,355.09L603.83,412.27L604.66,412.27L604.66,355.09L605.57,412.27L605.57,412.27L605.58,412.27L606.4,412.27L606.41,355.09L607.24,412.27L607.24,355.09L608.15,412.27L608.16,355.09L608.38,355.09L608.38,412.27L609.06,355.09L609.13,412.27L609.14,412.27L610.5,412.27L610.51,355.09L611.33,412.27L611.34,412.27L611.79,412.27L611.8,355.09L612.09,355.09L612.09,355.09L612.1,412.27L612.7,355.09L612.85,412.27L612.86,412.27L613.23,412.27L613.23,412.27L613.24,355.09L614.07,412.27L614.08,355.09L614.98,412.27L614.99,412.27L615.89,355.09L615.9,412.27L616.27,355.09L616.65,412.27L616.66,412.27L616.88,412.27L616.88,355.09L617.79,412.27L617.79,412.27L617.8,412.27L618.32,412.27L618.33,355.09L619,412.27L619.08,355.09L619.09,355.09L619.84,412.27L619.84,412.27" style="vector-effect: none; fill: none; stroke: rgb(0, 154, 250); stroke-opacity: 1; stroke-width: 1.8px; opacity: 1;"/></g><g class="points"/><g class="text"/></g></g></g></g><path class="xlines-above crisp" d="M55.349577136191314,459.0214202391369H694.246719160105" style="fill: none; stroke-width: 1px; stroke: rgb(0, 0, 0); stroke-opacity: 1;"/><path class="ylines-above crisp" d="M55.849577136191314,34.2470982793818V458.5214202391369" style="fill: none; stroke-width: 1px; stroke: rgb(0, 0, 0); stroke-opacity: 1;"/><g class="overlines-above"/><g class="xaxislayer-above"><path class="xtick ticks crisp" d="M0,458.5214202391369v-5" transform="translate(74.39957713619131,0)" style="stroke: rgb(0, 0, 0); stroke-opacity: 1; stroke-width: 1px;"/><path class="xtick ticks crisp" d="M0,458.5214202391369v-5" transform="translate(226.1995771361913,0)" style="stroke: rgb(0, 0, 0); stroke-opacity: 1; stroke-width: 1px;"/><path class="xtick ticks crisp" d="M0,458.5214202391369v-5" transform="translate(377.9895771361913,0)" style="stroke: rgb(0, 0, 0); stroke-opacity: 1; stroke-width: 1px;"/><path class="xtick ticks crisp" d="M0,458.5214202391369v-5" transform="translate(529.7895771361913,0)" style="stroke: rgb(0, 0, 0); stroke-opacity: 1; stroke-width: 1px;"/><path class="xtick ticks crisp" d="M0,458.5214202391369v-5" transform="translate(681.5795771361913,0)" style="stroke: rgb(0, 0, 0); stroke-opacity: 1; stroke-width: 1px;"/><g class="xtick"><text text-anchor="middle" x="0" y="472.7214202391369" transform="translate(74.39957713619131,0)" style="font-family: sans-serif; font-size: 11px; fill: rgb(0, 0, 0); fill-opacity: 1; white-space: pre; opacity: 1;">00:00</text></g><g class="xtick"><text text-anchor="middle" x="0" y="472.7214202391369" style="font-family: sans-serif; font-size: 11px; fill: rgb(0, 0, 0); fill-opacity: 1; white-space: pre; opacity: 1;" transform="translate(226.1995771361913,0)">33:20</text></g><g class="xtick"><text text-anchor="middle" x="0" y="472.7214202391369" style="font-family: sans-serif; font-size: 11px; fill: rgb(0, 0, 0); fill-opacity: 1; white-space: pre; opacity: 1;" transform="translate(377.9895771361913,0)">66:40</text></g><g class="xtick"><text text-anchor="middle" x="0" y="472.7214202391369" style="font-family: sans-serif; font-size: 11px; fill: rgb(0, 0, 0); fill-opacity: 1; white-space: pre; opacity: 1;" transform="translate(529.7895771361913,0)">100:00</text></g><g class="xtick"><text text-anchor="middle" x="0" y="472.7214202391369" style="font-family: sans-serif; font-size: 11px; fill: rgb(0, 0, 0); fill-opacity: 1; white-space: pre; opacity: 1;" transform="translate(681.5795771361913,0)">133:20</text></g></g><g class="yaxislayer-above"><path class="ytick ticks crisp" d="M56.349577136191314,0h5" transform="translate(0,389.3370982793818)" style="stroke: rgb(0, 0, 0); stroke-opacity: 1; stroke-width: 1px;"/><path class="ytick ticks crisp" d="M56.349577136191314,0h5" transform="translate(0,274.9770982793818)" style="stroke: rgb(0, 0, 0); stroke-opacity: 1; stroke-width: 1px;"/><path class="ytick ticks crisp" d="M56.349577136191314,0h5" transform="translate(0,160.61709827938182)" style="stroke: rgb(0, 0, 0); stroke-opacity: 1; stroke-width: 1px;"/><path class="ytick ticks crisp" d="M56.349577136191314,0h5" transform="translate(0,46.2570982793818)" style="stroke: rgb(0, 0, 0); stroke-opacity: 1; stroke-width: 1px;"/><g class="ytick"><text text-anchor="end" x="53.14957713619131" y="3.8499999999999996" transform="translate(0,389.3370982793818)" style="font-family: sans-serif; font-size: 11px; fill: rgb(0, 0, 0); fill-opacity: 1; white-space: pre; opacity: 1;">24.62</text></g><g class="ytick"><text text-anchor="end" x="53.14957713619131" y="3.8499999999999996" style="font-family: sans-serif; font-size: 11px; fill: rgb(0, 0, 0); fill-opacity: 1; white-space: pre; opacity: 1;" transform="translate(0,274.9770982793818)">24.64</text></g><g class="ytick"><text text-anchor="end" x="53.14957713619131" y="3.8499999999999996" style="font-family: sans-serif; font-size: 11px; fill: rgb(0, 0, 0); fill-opacity: 1; white-space: pre; opacity: 1;" transform="translate(0,160.61709827938182)">24.66</text></g><g class="ytick"><text text-anchor="end" x="53.14957713619131" y="3.8499999999999996" style="font-family: sans-serif; font-size: 11px; fill: rgb(0, 0, 0); fill-opacity: 1; white-space: pre; opacity: 1;" transform="translate(0,46.2570982793818)">24.68</text></g></g><g class="overaxes-above"/></g></g><g class="polarlayer"/><g class="smithlayer"/><g class="ternarylayer"/><g class="geolayer"/><g class="funnelarealayer"/><g class="pielayer"/><g class="iciclelayer"/><g class="treemaplayer"/><g class="sunburstlayer"/><g class="glimages"/><defs id="topdefs-e36ee6"><g class="clips"/><clipPath id="legende36ee6"><rect width="110" height="29" x="1" y="1"/></clipPath></defs><g class="layer-above"><g class="imagelayer"/><g class="shapelayer"/></g><g class="infolayer"><g class="legend" pointer-events="all" transform="translate(584,20)"><rect class="bg" shape-rendering="crispEdges" width="111" height="30" x="0.5" y="0.5" style="stroke: rgb(0, 0, 0); stroke-opacity: 1; fill: rgb(255, 255, 255); fill-opacity: 1; stroke-width: 1px;"/><g class="scrollbox" transform="" clip-path="url(#legende36ee6)"><g class="groups"><g class="traces" transform="translate(1,15.5)" style="opacity: 1;"><text class="legendtext" text-anchor="start" x="40" y="4.29" style="font-family: sans-serif; font-size: 11px; fill: rgb(0, 0, 0); fill-opacity: 1; white-space: pre;">csca_upack[]</text><g class="layers" style="opacity: 1;"><g class="legendfill"/><g class="legendlines"><path class="js-line" d="M5,0h30" style="fill: none; stroke: rgb(0, 154, 250); stroke-opacity: 1; stroke-width: 1.8px;"/></g><g class="legendsymbols"><g class="legendpoints"/></g></g><rect class="legendtoggle" x="0" y="-9.5" width="104.203125" height="19" style="fill: rgb(0, 0, 0); fill-opacity: 0;"/></g></g></g><rect class="scrollbar" rx="20" ry="3" width="0" height="0" x="0" y="0" style="fill: rgb(128, 139, 164); fill-opacity: 1;"/></g><g class="g-gtitle"/><g class="g-xtitle" transform="translate(0,-2.734375)"><text class="xtitle" x="375.2981481481482" y="499.734375" text-anchor="middle" style="opacity: 1; font-family: sans-serif; font-size: 15px; fill: rgb(0, 0, 0); fill-opacity: 1; white-space: pre;">Time</text></g><g class="g-ytitle" transform="translate(8.1494140625,0)"><text class="ytitle" transform="rotate(-90,5.859375,246.38425925925935)" x="5.859375" y="246.38425925925935" text-anchor="middle" style="opacity: 1; font-family: sans-serif; font-size: 15px; fill: rgb(0, 0, 0); fill-opacity: 1; white-space: pre;">Packvoltage in V</text></g><g class="annotation" data-index="0" style="opacity: 1;"><g class="annotation-text-g" transform="rotate(0,375.29814814814813,33)"><g class="cursor-pointer" transform="translate(313,20)"><rect class="bg" x="0.5" y="0.5" width="123" height="25" style="stroke-width: 1px; stroke: rgb(0, 0, 0); stroke-opacity: 0; fill: rgb(0, 0, 0); fill-opacity: 0;"/><text class="annotation-text" text-anchor="middle" x="62.03125" y="20" style="font-family: sans-serif; font-size: 20px; fill: rgb(0, 0, 0); fill-opacity: 1; white-space: pre;">Democapture</text></g></g></g></g></svg>