<svg class="main-svg" xmlns="http://www.w3.org/2000/svg" xmlns:xlink="http://www.w3.org/1999/xlink" width="700" height="500" style="" viewBox="0 0 700 500"><rect x="0" y="0" width="700" height="500" style="fill: rgb(255, 255, 255); fill-opacity: 1;"/><defs id="defs-f6afeb"><g class="clips"><clipPath id="clipf6afebxyplot" class="plotclip"><rect width="637.8971420239137" height="424.27432195975507"/></clipPath><clipPath class="axesclip" id="clipf6afebx"><rect x="56.349577136191314" y="0" width="637.8971420239137" height="500"/></clipPath><clipPath class="axesclip" id="clipf6afeby"><rect x="0" y="34.2470982793818" width="700" height="424.27432195975507"/></clipPath><clipPath class="axesclip" id="clipf6afebxy"><rect x="56.349577136191314" y="34.2470982793818" width="637.8971420239137" height="424.27432195975507"/></clipPath></g><g class="gradients"/><g class="patterns"/></defs><g class="bglayer"/><g class="layer-below"><g class="imagelayer"/><g class="shapelayer"/></g><g class="cartesianlayer"><g class="subplot xy"><g class="layer-subplot"><g class="shapelayer"/><g class="imagelayer"/></g><g class="minor-gridlayer"><g class="x"/><g class="y"/></g><g class="gridlayer"><g class="x"><path class="xgrid crisp" transform="translate(74.39957713619131,0)" d="M0,34.2470982793818v424.27432195975507" style="stroke: rgb(0, 0, 0); stroke-opacity: 0.1; stroke-width: 0.5px;"/><path class="xgrid crisp" transform="translate(226.1995771361913,0)" d="M0,34.2470982793818v424.27432195975507" style="stroke: rgb(0, 0, 0); stroke-opacity: 0.1; stroke-width: 0.5px;"/><path class="xgrid crisp" transform="translate(377.9895771361913,0)" d="M0,34.2470982793818v424.27432195975507" style="stroke: rgb(0, 0, 0); stroke-opacity: 0.1; stroke-width: 0.5px;"/><path class="xgrid crisp" transform="translate(529.7895771361913,0)" d="M0,34.2470982793818v424.27432195975507" style="stroke: rgb(0, 0, 0); stroke-opacity: 0.1; stroke-width: 0.5px;"/><path class="xgrid crisp" transform="translate(681.5795771361913,0)" d="M0,34.2470982793818v424.27432195975507" style="stroke: rgb(0, 0, 0); stroke-opacity: 0.1; stroke-width: 0.5px;"/></g><g class="y"><path class="ygrid crisp" transform="translate(0,389.3370982793818)" d="M56.349577136191314,0h637.8971420239137" style="stroke: rgb(0, 0, 0); stroke-opacity: 0.1; stroke-width: 0.5px;"/><path class="ygrid crisp" transform="translate(0,274.9770982793818)" d="M56.349577136191314,0h637.8971420239137" style="stroke: rgb(0, 0, 0); stroke-opacity: 0.1; stroke-width: 0.5px;"/><path class="ygrid crisp" transform="translate(0,160.61709827938182)" d="M56.349577136191314,0h637.8971420239137" style="stroke: rgb(0, 0, 0); stroke-opacity: 0.1; stroke-width: 0.5px;"/><path class="ygrid crisp" transform="translate(0,46.2570982793818)" d="M56.349577136191314,0h637.8971420239137" style="stroke: rgb(0, 0, 0); stroke-opacity: 0.1; stroke-width: 0.5px;"/></g></g><g class="zerolinelayer"/><g class="layer-between"><g class="shapelayer"/><g class="imagelayer"/></g><path class="xlines-below"/><path class="ylines-below"/><g class="overlines-below"/><g class="xaxislayer-below"/><g class="yaxislayer-below"/><g class="overaxes-below"/><g class="overplot"><g class="xy" transform="translate(56.349577136191314,34.2470982793818)" clip-path="url(#clipf6afebxyplot)"><g class="scatterlayer mlayer"><g class="trace scatter trace47bdbc" style="stroke-miterlimit: 2; opacity: 1;"><g class="fills"/><g class="errorbars"/><g class="lines"><path class="js-line" d="M18.05,12.01L18.36,12.01L18.43,69.19L19.19,12.01L19.27,12.01L19.8,69.19L19.95,12.01L20.03,12.01L20.25,12.01L20.33,69.19L21.01,12.01L21.09,69.19L21.92,12.01L22,69.19L22.76,12.01L22.84,12.01L23.52,69.19L23.59,12.01L23.67,12.01L24.35,69.19L24.43,12.01L25.19,69.19L25.26,69.19L26.02,12.01L26.1,69.19L26.78,12.01L26.86,69.19L27.62,12.01L27.69,12.01L28.53,69.19L28.6,12.01L29.21,69.19L29.29,12.01L29.36,12.01L29.74,69.19L30.05,12.01L30.12,12.01L30.73,69.19L30.8,12.01L30.88,12.01L31.34,12.01L31.41,69.19L32.17,12.01L32.25,69.19L32.7,69.19L32.78,12.01L33.38,69.19L33.46,12.01L33.54,12.01L33.92,69.19L34.22,12.01L34.3,12.01L35.05,69.19L35.13,69.19L35.43,69.19L35.51,12.01L36.19,69.19L36.27,12.01L36.95,69.19L37.03,12.01L37.26,12.01L37.33,69.19L38.01,69.19L38.09,12.01L38.85,69.19L38.93,12.01L39.68,69.19L39.76,12.01L40.52,69.19L40.6,12.01L41.35,69.19L41.43,69.19L42.26,12.01L42.34,69.19L43.02,12.01L43.1,69.19L43.71,12.01L43.78,69.19L43.86,69.19L44.54,69.19L44.62,12.01L45.38,69.19L45.45,69.19L45.6,12.01L46.14,69.19L46.21,69.19L46.59,12.01L46.89,69.19L46.97,69.19L47.65,12.01L47.73,69.19L48.03,12.01L48.41,69.19L48.49,69.19L48.94,12.01L49.17,69.19L49.25,69.19L49.78,69.19L49.85,12.01L50.61,69.19L50.69,69.19L51.07,12.01L51.37,69.19L51.45,69.19L51.68,12.01L52.13,69.19L52.21,69.19L52.81,69.19L52.89,12.01L53.12,126.37L53.65,69.19L53.73,69.19L54.03,69.19L54.1,12.01L54.86,69.19L54.94,69.19L55.62,12.01L55.7,69.19L56,69.19L56.08,12.01L56.91,69.19L56.99,69.19L58.58,69.19L58.66,12.01L59.34,126.37L59.42,69.19L59.49,69.19L62,69.19L62.07,12.01L62.83,69.19L62.91,69.19L63.9,69.19L63.97,12.01L64.73,69.19L64.81,69.19L64.96,12.01L65.49,69.19L65.57,69.19L67.31,69.19L67.39,12.01L68.15,69.19L68.22,69.19L71.64,69.19L71.71,12.01L72.55,69.19L72.62,69.19L73.08,69.19L73.16,12.01L73.99,69.19L74.07,69.19L75.66,69.19L75.74,12.01L76.49,69.19L76.57,69.19L79.68,69.19L79.76,126.37L80.59,69.19L80.67,69.19L81.28,69.19L81.35,126.37L82.11,69.19L82.19,69.19L82.57,69.19L82.64,126.37L83.4,69.19L83.48,69.19L85.22,69.19L85.3,126.37L86.06,69.19L86.13,69.19L87.04,69.19L87.12,12.01L87.27,126.37L87.8,69.19L87.88,12.01L87.96,126.37L88.64,69.19L88.71,69.19L90.99,69.19L91.07,126.37L91.83,69.19L91.9,69.19L94.71,69.19L94.79,126.37L95.54,69.19L95.62,69.19L95.7,126.37L96.3,69.19L96.38,69.19L98.28,69.19L98.35,126.37L99.11,69.19L99.19,69.19L99.26,126.37L99.87,69.19L99.95,69.19L100.33,69.19L100.4,126.37L101.16,69.19L101.24,69.19L102.53,69.19L102.6,126.37L103.21,69.19L103.29,126.37L103.36,126.37L104.12,69.19L104.2,69.19L105.94,69.19L106.02,126.37L106.78,69.19L106.85,126.37L107.76,69.19L107.84,69.19L108.07,69.19L108.14,126.37L108.37,126.37L108.45,69.19L109.66,69.19L109.74,126.37L110.5,69.19L110.57,69.19L110.88,69.19L110.95,126.37L111.64,69.19L111.71,126.37L112.47,69.19L112.55,69.19L113.23,126.37L113.3,69.19L113.38,69.19L113.68,69.19L113.76,126.37L114.44,69.19L114.52,126.37L115.35,69.19L115.43,69.19L115.58,126.37L116.11,69.19L116.19,69.19L117.02,69.19L117.1,126.37L117.33,126.37L117.4,69.19L117.86,69.19L117.93,126.37L118.69,69.19L118.77,69.19L119.53,126.37L119.6,69.19L119.76,69.19L119.83,126.37L120.44,69.19L120.52,126.37L120.59,126.37L121.2,69.19L121.27,126.37L121.35,126.37L122.11,69.19L122.18,126.37L122.34,126.37L122.41,69.19L123.17,126.37L123.25,69.19L123.55,69.19L123.63,126.37L123.78,126.37L123.85,69.19L124.54,126.37L124.61,69.19L124.92,69.19L124.99,126.37L125.75,69.19L125.83,126.37L126.06,126.37L126.13,69.19L126.81,126.37L126.89,69.19L127.65,126.37L127.73,126.37L128.1,126.37L128.18,69.19L128.94,126.37L129.02,126.37L129.17,69.19L129.77,126.37L129.85,126.37L130,126.37L130.08,69.19L130.91,126.37L130.99,126.37L131.6,69.19L131.67,126.37L131.75,126.37L132.43,69.19L132.51,126.37L132.89,126.37L132.96,69.19L133.57,126.37L133.65,69.19L133.72,69.19L134.4,126.37L134.48,69.19L135.24,126.37L135.32,126.37L135.54,126.37L135.62,69.19L136.23,126.37L136.3,69.19L136.38,69.19L136.53,69.19L136.61,126.37L136.83,69.19L137.36,126.37L137.44,69.19L138.2,126.37L138.28,126.37L138.43,126.37L138.5,69.19L139.34,126.37L139.41,126.37L139.72,126.37L139.79,69.19L140.55,126.37L140.63,69.19L140.78,69.19L140.86,126.37L141.24,126.37L141.31,69.19L142.07,126.37L142.15,126.37L142.37,126.37L142.45,69.19L143.28,126.37L143.36,126.37L143.66,126.37L143.74,69.19L144.57,126.37L144.65,69.19L144.8,69.19L144.88,126.37L145.03,126.37L145.11,183.55L145.86,69.19L145.94,126.37L146.09,126.37L146.17,69.19L146.55,69.19L146.62,126.37L147.23,69.19L147.31,126.37L147.38,126.37L147.84,126.37L147.91,69.19L148.67,126.37L148.75,126.37L148.9,69.19L149.43,126.37L149.51,126.37L149.89,126.37L149.96,69.19L150.72,126.37L150.8,126.37L152.54,126.37L152.62,69.19L153.45,126.37L153.53,126.37L154.74,126.37L154.82,69.19L155.58,126.37L155.66,126.37L156.26,126.37L156.34,69.19L157.17,126.37L157.25,126.37L157.7,126.37L157.78,69.19L158.54,126.37L158.62,69.19L159.37,126.37L159.45,126.37L164,126.37L164.08,69.19L164.91,126.37L164.99,126.37L165.45,126.37L165.52,183.55L166.28,126.37L166.36,126.37L171.44,126.37L171.52,69.19L172.28,126.37L172.35,126.37L172.5,126.37L172.58,69.19L173.34,126.37L173.42,126.37L174.25,126.37L174.33,183.55L175.09,126.37L175.16,126.37L178.58,126.37L178.65,69.19L179.41,126.37L179.49,126.37L180.02,126.37L180.09,183.55L180.85,69.19L180.93,126.37L185.48,126.37L185.56,183.55L186.32,126.37L186.39,126.37L186.62,183.55L187.08,126.37L187.15,126.37L190.34,126.37L190.42,183.55L191.18,126.37L191.25,183.55L192.09,126.37L192.16,126.37L192.85,126.37L192.92,183.55L193.68,126.37L193.76,126.37L194.06,183.55L194.51,126.37L194.59,126.37L195.05,126.37L195.12,183.55L195.88,126.37L195.96,126.37L196.79,126.37L196.87,183.55L197.63,126.37L197.7,183.55L198.46,126.37L198.54,126.37L198.77,126.37L198.84,183.55L199.6,126.37L199.68,126.37L200.43,183.55L200.51,183.55L201.27,126.37L201.35,126.37L201.73,183.55L202.1,126.37L202.18,126.37L202.79,183.55L202.86,126.37L202.94,126.37L203.09,183.55L203.62,126.37L203.7,126.37L204.46,126.37L204.53,183.55L205.29,126.37L205.37,126.37L206.43,126.37L206.51,183.55L207.27,126.37L207.34,126.37L207.8,183.55L208.02,126.37L208.1,126.37L208.48,183.55L208.78,126.37L208.86,126.37L209.09,126.37L209.16,183.55L209.92,126.37L210,183.55L210.76,126.37L210.83,183.55L211.59,126.37L211.67,183.55L212.43,126.37L212.5,126.37L213.19,183.55L213.26,126.37L213.79,183.55L213.94,126.37L214.02,126.37L214.32,126.37L214.4,183.55L215.23,126.37L215.31,126.37L215.84,183.55L215.99,126.37L216.07,126.37L216.75,183.55L216.83,126.37L217.59,183.55L217.66,126.37L218.35,183.55L218.42,126.37L218.65,126.37L218.73,183.55L219.56,126.37L219.64,183.55L220.47,126.37L220.55,126.37L220.93,126.37L221,183.55L221.23,183.55L221.31,126.37L221.46,126.37L221.53,183.55L221.76,183.55L221.84,126.37L222.6,183.55L222.67,183.55L222.98,126.37L223.36,183.55L223.43,183.55L223.58,183.55L223.66,126.37L224.49,183.55L224.57,183.55L224.8,183.55L224.87,126.37L225.78,183.55L225.86,126.37L226.16,183.55L226.54,126.37L226.62,126.37L227.38,183.55L227.45,126.37L228.21,183.55L228.29,183.55L229.05,126.37L229.12,183.55L229.5,183.55L229.58,126.37L230.26,183.55L230.34,126.37L231.1,183.55L231.17,126.37L232.08,183.55L232.16,183.55L232.77,126.37L232.84,183.55L232.92,183.55L233.6,183.55L233.68,126.37L233.98,126.37L234.06,183.55L234.66,126.37L234.74,183.55L234.82,183.55L235.12,126.37L235.5,183.55L235.58,183.55L236.11,183.55L236.18,126.37L236.94,183.55L237.02,126.37L237.25,126.37L237.32,183.55L237.85,126.37L238,183.55L238.08,183.55L238.69,183.55L238.76,126.37L239.52,183.55L239.6,183.55L239.9,183.55L239.98,126.37L240.58,183.55L240.66,126.37L240.74,126.37L241.5,183.55L241.57,183.55L242.03,183.55L242.1,126.37L242.41,240.73L242.79,183.55L242.86,126.37L243.62,183.55L243.7,183.55L244.46,183.55L244.53,126.37L245.37,183.55L245.44,183.55L245.67,183.55L245.75,240.73L246.5,183.55L246.58,183.55L246.96,183.55L247.04,126.37L247.79,183.55L247.87,183.55L248.17,183.55L248.25,126.37L249.09,183.55L249.16,126.37L249.92,183.55L250,183.55L250.53,183.55L250.6,126.37L251.29,183.55L251.36,126.37L252.12,183.55L252.2,183.55L252.5,183.55L252.58,126.37L253.34,183.55L253.41,183.55L254.02,183.55L254.09,126.37L254.85,183.55L254.93,183.55L255.01,126.37L255.61,183.55L255.69,183.55L256.9,183.55L256.98,240.73L257.74,183.55L257.81,183.55L258.27,183.55L258.34,126.37L259.1,183.55L259.18,183.55L262.9,183.55L262.97,240.73L263.66,126.37L263.73,240.73L264.64,183.55L264.72,183.55L264.95,240.73L265.4,183.55L265.48,183.55L266.54,183.55L266.62,240.73L267.38,183.55L267.45,183.55L267.76,183.55L267.83,240.73L268.67,183.55L268.74,183.55L272.69,183.55L272.77,126.37L273.52,183.55L273.6,183.55L274.13,183.55L274.21,240.73L274.97,183.55L275.04,240.73L275.8,183.55L275.88,183.55L277.24,183.55L277.32,240.73L278.15,183.55L278.23,183.55L278.53,240.73L278.91,183.55L278.99,183.55L279.67,183.55L279.75,240.73L280.51,183.55L280.58,183.55L281.42,183.55L281.49,240.73L282.25,183.55L282.33,183.55L283.09,240.73L283.16,240.73L283.92,183.55L284,183.55L284.15,240.73L284.68,183.55L284.76,183.55L286.35,183.55L286.43,240.73L287.19,183.55L287.26,183.55L287.64,183.55L287.72,240.73L288.48,183.55L288.55,183.55L289.08,183.55L289.16,240.73L289.92,183.55L289.99,183.55L290.45,240.73L290.68,183.55L290.75,183.55L291.44,240.73L291.51,183.55L291.66,183.55L291.74,240.73L292.57,183.55L292.65,183.55L293.33,240.73L293.41,183.55L293.64,183.55L293.71,240.73L294.47,183.55L294.55,183.55L295.69,183.55L295.76,240.73L296.6,183.55L296.67,183.55L297.13,183.55L297.2,240.73L298.11,183.55L298.19,183.55L298.42,183.55L298.49,240.73L299.25,183.55L299.33,183.55L299.63,183.55L299.71,240.73L300.39,126.37L300.47,183.55L300.54,240.73L301.38,183.55L301.45,240.73L302.21,183.55L302.29,240.73L303.05,183.55L303.12,240.73L303.81,183.55L303.88,240.73L304.79,183.55L304.87,183.55L305.17,183.55L305.25,240.73L306.01,183.55L306.08,240.73L306.77,183.55L306.84,240.73L306.99,240.73L307.07,183.55L307.22,183.55L307.3,240.73L308.13,183.55L308.21,183.55L308.97,240.73L309.04,240.73L309.58,183.55L309.73,240.73L309.8,240.73L309.88,183.55L310.49,240.73L310.56,240.73L311.4,183.55L311.47,183.55L312.23,240.73L312.31,240.73L312.76,240.73L312.84,183.55L312.99,183.55L313.07,240.73L313.45,240.73L313.52,183.55L314.28,240.73L314.36,240.73L315.04,183.55L315.12,240.73L315.87,183.55L315.95,240.73L316.56,183.55L316.63,240.73L316.71,240.73L317.32,183.55L317.39,240.73L317.47,240.73L318,240.73L318.08,183.55L318.23,183.55L318.3,240.73L318.61,183.55L318.99,240.73L319.06,240.73L319.37,183.55L319.75,240.73L319.82,240.73L319.97,240.73L320.05,183.55L320.73,240.73L320.81,183.55L321.11,183.55L321.19,240.73L321.42,240.73L321.49,183.55L322.33,240.73L322.4,183.55L322.63,183.55L322.71,240.73L323.31,183.55L323.46,240.73L323.54,240.73L325.51,240.73L325.59,183.55L326.2,240.73L326.27,183.55L326.35,183.55L327.18,240.73L327.26,240.73L327.64,240.73L327.71,183.55L328.47,240.73L328.55,183.55L329.38,240.73L329.46,240.73L332.04,240.73L332.12,183.55L332.8,240.73L332.88,183.55L333.48,297.91L333.71,240.73L333.79,240.73L334.62,183.55L334.7,240.73L335.46,240.73L335.53,183.55L336.29,240.73L336.37,183.55L337.13,240.73L337.2,240.73L337.35,240.73L337.43,183.55L338.26,240.73L338.34,183.55L338.57,183.55L338.64,240.73L339.71,240.73L339.78,183.55L340.54,240.73L340.62,240.73L343.5,240.73L343.58,297.91L344.34,240.73L344.41,240.73L350.64,240.73L350.71,297.91L351.47,240.73L351.55,240.73L355.27,240.73L355.34,297.91L355.57,297.91L355.64,240.73L356.1,240.73L356.18,297.91L356.94,240.73L357.01,240.73L357.85,240.73L357.92,297.91L358.68,240.73L358.76,240.73L360.27,240.73L360.35,297.91L361.19,240.73L361.26,240.73L363.08,240.73L363.16,297.91L363.92,240.73L363.99,240.73L364.15,240.73L364.22,297.91L364.98,240.73L365.06,240.73L367.41,240.73L367.48,297.91L368.32,240.73L368.4,240.73L370.82,240.73L370.9,297.91L371.74,240.73L371.81,240.73L372.34,297.91L372.49,240.73L372.57,240.73L373.25,240.73L373.33,297.91L374.01,240.73L374.09,297.91L374.85,240.73L374.92,240.73L375.3,240.73L375.38,297.91L376.21,240.73L376.29,240.73L376.82,240.73L376.9,297.91L377.66,240.73L377.73,240.73L379.32,240.73L379.4,297.91L380.16,240.73L380.24,240.73L380.99,297.91L381.07,240.73L381.3,240.73L381.37,297.91L382.13,240.73L382.21,240.73L383.2,240.73L383.27,297.91L383.88,240.73L383.95,297.91L384.03,297.91L384.87,240.73L384.94,240.73L385.93,240.73L386,297.91L386.69,240.73L386.76,297.91L387.52,240.73L387.6,297.91L388.36,240.73L388.43,240.73L388.96,240.73L389.04,297.91L389.87,240.73L389.95,240.73L390.25,240.73L390.33,297.91L391.16,240.73L391.24,297.91L391.92,240.73L392,297.91L392.83,240.73L392.91,297.91L393.52,240.73L393.59,297.91L393.67,297.91L394.43,240.73L394.5,297.91L395.26,240.73L395.34,240.73L396.02,297.91L396.1,240.73L396.48,240.73L396.55,297.91L397.24,240.73L397.31,297.91L398.07,240.73L398.15,297.91L398.98,240.73L399.06,297.91L399.89,240.73L399.97,240.73L400.5,240.73L400.58,297.91L401.18,240.73L401.26,297.91L401.34,297.91L402.09,240.73L402.17,240.73L402.93,297.91L403,240.73L403.76,297.91L403.84,297.91L404.67,240.73L404.75,240.73L405.36,297.91L405.43,240.73L405.51,240.73L406.34,297.91L406.42,297.91L407.1,240.73L407.18,297.91L407.71,240.73L407.86,297.91L407.94,297.91L408.62,297.91L408.7,240.73L409,240.73L409.08,297.91L409.84,240.73L409.91,240.73L410.22,240.73L410.29,297.91L411.05,240.73L411.13,297.91L411.81,240.73L411.88,297.91L411.96,297.91L412.42,297.91L412.49,240.73L413.25,297.91L413.33,240.73L413.48,240.73L413.55,297.91L414.24,240.73L414.31,297.91L414.47,297.91L414.54,240.73L415.3,297.91L415.38,297.91L416.06,240.73L416.14,297.91L416.59,240.73L416.89,297.91L416.97,297.91L417.58,240.73L417.65,297.91L417.73,297.91L418.11,297.91L418.18,240.73L418.94,297.91L419.02,297.91L419.4,240.73L419.7,297.91L419.78,297.91L420.16,240.73L420.46,297.91L420.54,297.91L421.52,297.91L421.6,240.73L422.43,297.91L422.51,240.73L423.27,297.91L423.35,297.91L423.72,297.91L423.8,240.73L424.64,297.91L424.71,297.91L424.94,297.91L425.02,240.73L425.17,240.73L425.24,297.91L425.93,297.91L426,240.73L426.68,297.91L426.76,240.73L427.6,297.91L427.67,297.91L428.05,297.91L428.13,240.73L428.73,297.91L428.81,240.73L428.89,240.73L429.64,297.91L429.72,297.91L430.18,297.91L430.25,240.73L431.01,297.91L431.09,297.91L432.23,297.91L432.3,240.73L432.98,297.91L433.06,240.73L433.82,297.91L433.9,240.73L434.65,297.91L434.73,240.73L435.56,297.91L435.64,297.91L436.48,297.91L436.55,240.73L437.23,297.91L437.31,240.73L438.22,297.91L438.3,297.91L439.89,297.91L439.97,355.09L440.73,297.91L440.8,297.91L441.79,297.91L441.86,240.73L442.62,297.91L442.7,297.91L443.08,240.73L443.38,297.91L443.46,297.91L443.69,297.91L443.76,240.73L444.44,297.91L444.52,240.73L445.28,297.91L445.36,297.91L447.63,297.91L447.71,355.09L448.47,297.91L448.54,297.91L448.62,240.73L449.23,297.91L449.3,297.91L451.81,297.91L451.88,240.73L452.64,297.91L452.72,297.91L453.7,297.91L453.78,355.09L454.54,297.91L454.62,297.91L455.75,297.91L455.83,355.09L456.66,297.91L456.74,297.91L457.35,297.91L457.42,240.73L458.18,297.91L458.26,297.91L459.55,297.91L459.62,355.09L460.38,297.91L460.46,297.91L460.61,297.91L460.69,355.09L461.37,297.91L461.45,355.09L462.28,297.91L462.36,297.91L462.58,297.91L462.66,355.09L463.49,297.91L463.57,297.91L465.85,297.91L465.92,355.09L466.68,297.91L466.76,297.91L467.52,297.91L467.59,355.09L468.35,297.91L468.43,297.91L469.34,297.91L469.41,355.09L470.25,297.91L470.33,297.91L470.4,355.09L471.08,297.91L471.16,297.91L471.39,355.09L471.84,297.91L471.92,297.91L472.3,297.91L472.37,355.09L473.06,297.91L473.13,355.09L473.97,297.91L474.04,355.09L474.73,297.91L474.8,355.09L475.56,297.91L475.64,297.91L476.25,297.91L476.32,355.09L476.93,297.91L477,355.09L477.08,355.09L477.84,297.91L477.92,297.91L478.52,297.91L478.6,355.09L479.36,297.91L479.43,297.91L480.27,297.91L480.34,355.09L481.1,297.91L481.18,355.09L481.94,297.91L482.01,297.91L482.62,297.91L482.7,355.09L483,355.09L483.08,297.91L483.3,297.91L483.38,355.09L484.21,297.91L484.29,297.91L484.75,297.91L484.82,355.09L485.58,297.91L485.66,297.91L485.88,297.91L485.96,355.09L486.8,297.91L486.87,355.09L487.55,297.91L487.63,355.09L488.47,297.91L488.54,355.09L489.38,297.91L489.45,297.91L490.13,355.09L490.21,297.91L490.74,297.91L490.82,355.09L490.97,355.09L491.05,297.91L491.35,297.91L491.43,355.09L491.73,355.09L491.8,297.91L492.34,297.91L492.41,355.09L493.17,297.91L493.25,297.91L494.01,355.09L494.08,297.91L494.76,355.09L494.84,297.91L495.6,355.09L495.68,355.09L496.21,297.91L496.43,355.09L496.51,297.91L496.89,297.91L496.97,355.09L497.35,297.91L497.72,355.09L497.8,297.91L498.26,355.09L498.48,297.91L498.56,297.91L499.24,355.09L499.32,297.91L499.47,297.91L499.55,355.09L500.23,297.91L500.31,355.09L500.76,297.91L501.06,355.09L501.14,355.09L501.82,355.09L501.9,297.91L502.13,297.91L502.2,355.09L502.96,297.91L503.04,355.09L503.49,297.91L503.72,355.09L503.8,355.09L504.56,355.09L504.63,297.91L505.31,355.09L505.39,297.91L506.3,412.27L506.38,297.91L507.06,355.09L507.14,297.91L507.44,297.91L507.52,355.09L508.05,355.09L508.12,297.91L508.81,355.09L508.88,297.91L509.64,355.09L509.72,297.91L510.25,355.09L510.4,297.91L510.48,297.91L511.39,355.09L511.46,355.09L511.99,355.09L512.07,297.91L512.9,355.09L512.98,355.09L513.44,355.09L513.51,297.91L514.27,355.09L514.35,355.09L514.95,297.91L515.03,355.09L515.11,355.09L515.64,297.91L515.86,355.09L515.94,355.09L516.7,355.09L516.77,297.91L517.53,355.09L517.61,355.09L518.14,355.09L518.22,297.91L518.9,355.09L518.98,297.91L519.73,355.09L519.81,355.09L521.33,355.09L521.4,297.91L522.16,355.09L522.24,355.09L522.69,355.09L522.77,297.91L523.53,355.09L523.61,355.09L523.68,297.91L524.36,355.09L524.44,355.09L524.82,355.09L524.9,297.91L525.65,355.09L525.73,355.09L526.34,355.09L526.41,297.91L527.17,355.09L527.25,297.91L527.93,355.09L528.01,297.91L528.84,355.09L528.92,297.91L529.75,355.09L529.83,355.09L530.82,355.09L530.89,297.91L531.65,355.09L531.73,355.09L532.11,355.09L532.18,297.91L532.94,355.09L533.02,355.09L533.09,297.91L533.7,355.09L533.78,355.09L536.2,355.09L536.28,297.91L537.04,355.09L537.12,355.09L538.18,355.09L538.25,297.91L539.01,355.09L539.09,355.09L539.32,412.27L539.77,355.09L539.85,355.09L546.98,355.09L547.06,412.27L547.82,355.09L547.89,355.09L550.78,355.09L550.85,412.27L551.61,355.09L551.69,355.09L552.75,355.09L552.83,412.27L553.59,297.91L553.66,355.09L554.12,355.09L554.19,412.27L554.95,355.09L555.03,355.09L555.94,355.09L556.01,412.27L556.77,355.09L556.85,355.09L558.67,355.09L558.75,412.27L559.51,355.09L559.58,355.09L561.17,355.09L561.25,412.27L562.01,355.09L562.09,355.09L563,355.09L563.07,412.27L563.83,355.09L563.91,412.27L564.67,355.09L564.74,355.09L565.8,355.09L565.88,412.27L566.64,355.09L566.72,355.09L566.94,412.27L567.47,355.09L567.55,355.09L568.92,355.09L568.99,412.27L569.75,355.09L569.83,355.09L570.05,355.09L570.13,412.27L570.89,355.09L570.97,355.09L571.65,412.27L571.72,355.09L571.8,355.09L572.03,355.09L572.1,412.27L573.01,355.09L573.09,355.09L573.77,412.27L573.85,355.09L574.38,355.09L574.46,412.27L575.22,355.09L575.29,355.09L575.52,355.09L575.6,412.27L576.35,355.09L576.43,355.09L576.73,355.09L576.81,412.27L577.49,355.09L577.57,412.27L578.33,355.09L578.4,355.09L579.01,355.09L579.09,412.27L579.85,355.09L579.92,355.09L580.68,412.27L580.76,412.27L581.67,355.09L581.74,355.09L582.12,355.09L582.2,412.27L582.81,355.09L582.88,412.27L582.96,412.27L583.72,355.09L583.79,412.27L584.4,355.09L584.48,412.27L584.55,412.27L585.23,355.09L585.31,412.27L586.07,355.09L586.15,412.27L586.98,355.09L587.06,412.27L587.74,355.09L587.81,412.27L587.89,412.27L588.65,355.09L588.73,355.09L589.48,412.27L589.56,412.27L590.32,355.09L590.4,355.09L590.93,412.27L591.15,355.09L591.23,412.27L592.07,355.09L592.14,412.27L592.82,355.09L592.9,412.27L593.73,355.09L593.81,355.09L594.04,355.09L594.11,412.27L594.72,355.09L594.8,412.27L594.87,412.27L595.56,355.09L595.63,412.27L596.39,355.09L596.47,412.27L597.15,412.27L597.23,355.09L597.91,412.27L597.99,355.09L598.82,412.27L598.9,412.27L599.73,355.09L599.81,412.27L600.03,412.27L600.11,355.09L600.87,412.27L600.95,412.27L601.7,355.09L601.78,355.09L602.31,412.27L602.46,355.09L602.54,355.09L603.3,412.27L603.37,355.09L603.75,355.09L603.83,412.27L604.59,412.27L604.66,355.09L605.57,412.27L605.65,412.27L606.33,412.27L606.41,355.09L607.17,412.27L607.24,355.09L608.08,412.27L608.16,355.09L608.91,412.27L608.99,355.09L609.75,412.27L609.83,412.27L610.43,412.27L610.51,355.09L611.27,412.27L611.34,412.27L611.72,412.27L611.8,355.09L612.03,355.09L612.1,412.27L612.63,355.09L612.78,412.27L612.86,412.27L613.16,412.27L613.24,355.09L614,412.27L614.08,355.09L614.91,412.27L614.99,412.27L615.82,355.09L615.9,412.27L616.2,355.09L616.58,412.27L616.66,412.27L616.96,355.09L617.41,412.27L617.49,412.27L618.25,412.27L618.33,355.09L618.93,412.27L619.08,355.09L619.16,412.27L619.39,355.09L619.84,412.27" style="vector-effect: none; fill: none; stroke: rgb(0, 154, 250); stroke-opacity: 1; stroke-width: 1.8px; opacity: 1;"/></g><g class="points"/><g class="text"/></g></g></g></g><path class="xlines-above crisp" d="M55.349577136191314,459.0214202391369H694.246719160105" style="fill: none; stroke-width: 1px; stroke: rgb(0, 0, 0); stroke-opacity: 1;"/><path class="ylines-above crisp" d="M55.849577136191314,34.2470982793818V458.5214202391369" style="fill: none; stroke-width: 1px; stroke: rgb(0, 0, 0); stroke-opacity: 1;"/><g class="overlines-above"/><g class="xaxislayer-above"><path class="xtick ticks crisp" d="M0,458.5214202391369v-5" transform="translate(74.39957713619131,0)" style="stroke: rgb(0, 0, 0); stroke-opacity: 1; stroke-width: 1px;"/><path class="xtick ticks crisp" d="M0,458.5214202391369v-5" transform="translate(226.1995771361913,0)" style="stroke: rgb(0, 0, 0); stroke-opacity: 1; stroke-width: 1px;"/><path class="xtick ticks crisp" d="M0,458.5214202391369v-5" transform="translate(377.9895771361913,0)" style="stroke: rgb(0, 0, 0); stroke-opacity: 1; stroke-width: 1px;"/><path class="xtick ticks crisp" d="M0,458.5214202391369v-5" transform="translate(529.7895771361913,0)" style="stroke: rgb(0, 0, 0); stroke-opacity: 1; stroke-width: 1px;"/><path class="xtick ticks crisp" d="M0,458.5214202391369v-5" transform="translate(681.5795771361913,0)" style="stroke: rgb(0, 0, 0); stroke-opacity: 1; stroke-width: 1px;"/><g class="xtick"><text text-anchor="middle" x="0" y="472.7214202391369" transform="translate(74.39957713619131,0)" style="font-family: sans-serif; font-size: 11px; fill: rgb(0, 0, 0); fill-opacity: 1; white-space: pre; opacity: 1;">00:00</text></g><g class="xtick"><text text-anchor="middle" x="0" y="472.7214202391369" style="font-family: sans-serif; font-size: 11px; fill: rgb(0, 0, 0); fill-opacity: 1; white-space: pre; opacity: 1;" transform="translate(226.1995771361913,0)">33:20</text></g><g class="xtick"><text text-anchor="middle" x="0" y="472.7214202391369" style="font-family: sans-serif; font-size: 11px; fill: rgb(0, 0, 0); fill-opacity: 1; white-space: pre; opacity: 1;" transform="translate(377.9895771361913,0)">66:40</text></g><g class="xtick"><text text-anchor="middle" x="0" y="472.7214202391369" style="font-family: sans-serif; font-size: 11px; fill: rgb(0, 0, 0); fill-opacity: 1; white-space: pre; opacity: 1;" transform="translate(529.7895771361913,0)">100:00</text></g><g class="xtick"><text text-anchor="middle" x="0" y="472.7214202391369" style="font-family: sans-serif; font-size: 11px; fill: rgb(0, 0, 0); fill-opacity: 1; white-space: pre; opacity: 1;" transform="translate(681.5795771361913,0)">133:20</text></g></g><g class="yaxislayer-above"><path class="ytick ticks crisp" d="M56.349577136191314,0h5" transform="translate(0,389.3370982793818)" style="stroke: rgb(0, 0, 0); stroke-opacity: 1; stroke-width: 1px;"/><path class="ytick ticks crisp" d="M56.349577136191314,0h5" transform="translate(0,274.9770982793818)" style="stroke: rgb(0, 0, 0); stroke-opacity: 1; stroke-width: 1px;"/><path class="ytick ticks crisp" d="M56.349577136191314,0h5" transform="translate(0,160.61709827938182)" style="stroke: rgb(0, 0, 0); stroke-opacity: 1; stroke-width: 1px;"/><path class="ytick ticks crisp" d="M56.349577136191314,0h5" transform="translate(0,46.2570982793818)" style="stroke: rgb(0, 0, 0); stroke-opacity: 1; stroke-width: 1px;"/><g class="ytick"><text text-anchor="end" x="53.14957713619131" y="3.8499999999999996" transform="translate(0,389.3370982793818)" style="font-family: sans-serif; font-size: 11px; fill: rgb(0, 0, 0); fill-opacity: 1; white-space: pre; opacity: 1;">24.62</text></g><g class="ytick"><text text-anchor="end" x="53.14957713619131" y="3.8499999999999996" style="font-family: sans-serif; font-size: 11px; fill: rgb(0, 0, 0); fill-opacity: 1; white-space: pre; opacity: 1;" transform="translate(0,274.9770982793818)">24.64</text></g><g class="ytick"><text text-anchor="end" x="53.14957713619131" y="3.8499999999999996" style="font-family: sans-serif; font-size: 11px; fill: rgb(0, 0, 0); fill-opacity: 1; white-space: pre; opacity: 1;" transform="translate(0,160.61709827938182)">24.66</text></g><g class="ytick"><text text-anchor="end" x="53.14957713619131" y="3.8499999999999996" style="font-family: sans-serif; font-size: 11px; fill: rgb(0, 0, 0); fill-opacity: 1; white-space: pre; opacity: 1;" transform="translate(0,46.2570982793818)">24.68</text></g></g><g class="overaxes-above"/></g></g><g class="polarlayer"/><g class="smithlayer"/><g class="ternarylayer"/><g class="geolayer"/><g class="funnelarealayer"/><g class="pielayer"/><g class="iciclelayer"/><g class="treemaplayer"/><g class="sunburstlayer"/><g class="glimages"/><defs id="topdefs-f6afeb"><g class="clips"/><clipPath id="legendf6afeb"><rect width="110" height="29" x="1" y="1"/></clipPath></defs><g class="layer-above"><g class="imagelayer"/><g class="shapelayer"/></g><g class="infolayer"><g class="legend" pointer-events="all" transform="translate(584,20)"><rect class="bg" shape-rendering="crispEdges" width="111" height="30" x="0.5" y="0.5" style="stroke: rgb(0, 0, 0); stroke-opacity: 1; fill: rgb(255, 255, 255); fill-opacity: 1; stroke-width: 1px;"/><g class="scrollbox" transform="" clip-path="url(#legendf6afeb)"><g class="groups"><g class="traces" transform="translate(1,15.5)" style="opacity: 1;"><text class="legendtext" text-anchor="start" x="40" y="4.29" style="font-family: sans-serif; font-size: 11px; fill: rgb(0, 0, 0); fill-opacity: 1; white-space: pre;">csca_upack[]</text><g class="layers" style="opacity: 1;"><g class="legendfill"/><g class="legendlines"><path class="js-line" d="M5,0h30" style="fill: none; stroke: rgb(0, 154, 250); stroke-opacity: 1; stroke-width: 1.8px;"/></g><g class="legendsymbols"><g class="legendpoints"/></g></g><rect class="legendtoggle" x="0" y="-9.5" width="104.203125" height="19" style="fill: rgb(0, 0, 0); fill-opacity: 0;"/></g></g></g><rect class="scrollbar" rx="20" ry="3" width="0" height="0" x="0" y="0" style="fill: rgb(128, 139, 164); fill-opacity: 1;"/></g><g class="g-gtitle"/><g class="g-xtitle" transform="translate(0,-2.734375)"><text class="xtitle" x="375.2981481481482" y="499.734375" text-anchor="middle" style="opacity: 1; font-family: sans-serif; font-size: 15px; fill: rgb(0, 0, 0); fill-opacity: 1; white-space: pre;">Time</text></g><g class="g-ytitle" transform="translate(8.1494140625,0)"><text class="ytitle" transform="rotate(-90,5.859375,246.38425925925935)" x="5.859375" y="246.38425925925935" text-anchor="middle" style="opacity: 1; font-family: sans-serif; font-size: 15px; fill: rgb(0, 0, 0); fill-opacity: 1; white-space: pre;">Packvoltage in V</text></g><g class="annotation" data-index="0" style="opacity: 1;"><g class="annotation-text-g" transform="rotate(0,375.29814814814813,33)"><g class="cursor-pointer" transform="translate(313,20)"><rect class="bg" x="0.5" y="0.5" width="123" height="25" style="stroke-width: 1px; stroke: rgb(0, 0, 0); stroke-opacity: 0; fill: rgb(0, 0, 0); fill-opacity: 0;"/><text class="annotation-text" text-anchor="middle" x="62.03125" y="20" style="font-family: sans-serif; font-size: 20px; fill: rgb(0, 0, 0); fill-opacity: 1; white-space: pre;">Democapture</text></g></g></g></g></svg>