<svg class="main-svg" xmlns="http://www.w3.org/2000/svg" xmlns:xlink="http://www.w3.org/1999/xlink" width="700" height="500" style="" viewBox="0 0 700 500"><rect x="0" y="0" width="700" height="500" style="fill: rgb(255, 255, 255); fill-opacity: 1;"/><defs id="defs-1ea648"><g class="clips"><clipPath id="clip1ea648xyplot" class="plotclip"><rect width="644.7382458442694" height="424.27432195975507"/></clipPath><clipPath class="axesclip" id="clip1ea648x"><rect x="50.50059930008749" y="0" width="644.7382458442694" height="500"/></clipPath><clipPath class="axesclip" id="clip1ea648y"><rect x="0" y="34.2470982793818" width="700" height="424.27432195975507"/></clipPath><clipPath class="axesclip" id="clip1ea648xy"><rect x="50.50059930008749" y="34.2470982793818" width="644.7382458442694" height="424.27432195975507"/></clipPath></g><g class="gradients"/><g class="patterns"/></defs><g class="bglayer"/><g class="layer-below"><g class="imagelayer"/><g class="shapelayer"/></g><g class="cartesianlayer"><g class="subplot xy"><g class="layer-subplot"><g class="shapelayer"/><g class="imagelayer"/></g><g class="minor-gridlayer"><g class="x"/><g class="y"/></g><g class="gridlayer"><g class="x"><path class="xgrid crisp" transform="translate(68.75059930008749,0)" d="M0,34.2470982793818v424.27432195975507" style="stroke: rgb(0, 0, 0); stroke-opacity: 0.1; stroke-width: 0.5px;"/><path class="xgrid crisp" transform="translate(222.17059930008747,0)" d="M0,34.2470982793818v424.27432195975507" style="stroke: rgb(0, 0, 0); stroke-opacity: 0.1; stroke-width: 0.5px;"/><path class="xgrid crisp" transform="translate(375.59059930008743,0)" d="M0,34.2470982793818v424.27432195975507" style="stroke: rgb(0, 0, 0); stroke-opacity: 0.1; stroke-width: 0.5px;"/><path class="xgrid crisp" transform="translate(529.0105993000875,0)" d="M0,34.2470982793818v424.27432195975507" style="stroke: rgb(0, 0, 0); stroke-opacity: 0.1; stroke-width: 0.5px;"/><path class="xgrid crisp" transform="translate(682.4405993000876,0)" d="M0,34.2470982793818v424.27432195975507" style="stroke: rgb(0, 0, 0); stroke-opacity: 0.1; stroke-width: 0.5px;"/></g><g class="y"><path class="ygrid crisp" transform="translate(0,446.5170982793818)" d="M50.50059930008749,0h644.7382458442694" style="stroke: rgb(0, 0, 0); stroke-opacity: 0.1; stroke-width: 0.5px;"/><path class="ygrid crisp" transform="translate(0,313.09709827938184)" d="M50.50059930008749,0h644.7382458442694" style="stroke: rgb(0, 0, 0); stroke-opacity: 0.1; stroke-width: 0.5px;"/><path class="ygrid crisp" transform="translate(0,179.67709827938182)" d="M50.50059930008749,0h644.7382458442694" style="stroke: rgb(0, 0, 0); stroke-opacity: 0.1; stroke-width: 0.5px;"/><path class="ygrid crisp" transform="translate(0,46.2570982793818)" d="M50.50059930008749,0h644.7382458442694" style="stroke: rgb(0, 0, 0); stroke-opacity: 0.1; stroke-width: 0.5px;"/></g></g><g class="zerolinelayer"/><g class="layer-between"><g class="shapelayer"/><g class="imagelayer"/></g><path class="xlines-below"/><path class="ylines-below"/><g class="overlines-below"/><g class="xaxislayer-below"/><g class="yaxislayer-below"/><g class="overaxes-below"/><g class="overplot"><g class="xy" transform="translate(50.50059930008749,34.2470982793818)" clip-path="url(#clip1ea648xyplot)"><g class="scatterlayer mlayer"><g class="trace scatter trace8c6fd3" style="stroke-miterlimit: 2; opacity: 1;"><g class="fills"/><g class="errorbars"/><g class="lines"><path class="js-line" d="M18.25,412.27L378.48,412.27L378.48,278.85L379.31,412.27L379.32,412.27L386.91,412.27L386.91,412.27L386.92,278.85L387.75,412.27L387.76,412.27L390.98,412.27L390.99,278.85L391.67,412.27L391.74,278.85L391.75,278.85L392.58,412.27L392.58,412.27L392.59,412.27L393.51,412.27L393.52,278.85L394.42,412.27L394.42,412.27L394.43,412.27L395.28,412.27L395.28,278.85L395.43,278.85L395.44,412.27L397.5,412.27L397.51,278.85L398.33,412.27L398.34,412.27L398.8,412.27L398.8,412.27L398.81,278.85L399.49,412.27L399.56,278.85L399.57,278.85L400.33,412.27L400.34,412.27L400.8,412.27L400.81,278.85L401.71,412.27L401.72,412.27L402.87,412.27L402.88,278.85L403.56,412.27L403.63,278.85L403.64,278.85L403.64,412.27L404.39,412.27L404.4,412.27L405.09,412.27L405.09,412.27L405.1,278.85L405.32,278.85L405.32,278.85L405.33,412.27L405.78,412.27L405.78,412.27L405.79,278.85L406.7,412.27L406.71,412.27L407.24,412.27L407.25,278.85L407.93,412.27L408,278.85L408.01,278.85L408.77,412.27L408.78,412.27L409.62,412.27L409.63,278.85L409.93,278.85L409.94,412.27L410.69,278.85L410.69,278.85L410.7,412.27L411.46,412.27L411.47,278.85L412.3,412.27L412.31,412.27L412.54,412.27L412.54,278.85L413.3,412.27L413.31,278.85L414.07,412.27L414.08,278.85L414.76,412.27L414.83,278.85L414.84,278.85L414.84,412.27L415.59,412.27L415.6,412.27L416.06,278.85L416.35,412.27L416.36,412.27L416.52,278.85L417.11,412.27L417.12,412.27L417.75,278.85L417.87,412.27L417.88,412.27L418.06,412.27L418.07,278.85L418.9,412.27L418.91,278.85L419.59,412.27L419.66,278.85L419.67,278.85L420.43,412.27L420.44,412.27L421.13,278.85L421.19,412.27L421.2,412.27L421.82,278.85L421.95,412.27L421.96,412.27L422.73,278.85L422.74,278.85L423.58,412.27L423.59,278.85L424.35,412.27L424.36,278.85L424.66,278.85L424.66,412.27L425.35,278.85L425.41,412.27L425.42,412.27L425.65,412.27L425.65,412.27L425.66,278.85L426.27,412.27L426.41,278.85L426.42,278.85L427.18,412.27L427.19,412.27L427.49,412.27L427.49,412.27L427.5,278.85L428.18,412.27L428.25,278.85L428.26,278.85L428.72,412.27L429.01,278.85L429.02,278.85L429.41,278.85L429.42,412.27L429.64,412.27L429.65,278.85L430.18,278.85L430.19,412.27L430.64,278.85L430.94,412.27L430.95,412.27L430.95,278.85L431.7,278.85L431.71,278.85L431.87,278.85L431.87,412.27L432.71,278.85L432.72,412.27L433.4,278.85L433.47,412.27L433.48,412.27L434.24,278.85L434.24,278.85L434.25,412.27L435.01,278.85L435.02,412.27L435.85,278.85L435.86,278.85L436.24,278.85L436.25,412.27L437.07,278.85L437.08,278.85L437.24,278.85L437.24,412.27L438,278.85L438,278.85L438.01,412.27L438.77,278.85L438.78,412.27L439.54,278.85L439.55,412.27L440.37,278.85L440.37,278.85L440.38,278.85L441,278.85L441,412.27L441.83,278.85L441.84,278.85L443.3,278.85L443.3,412.27L444.06,278.85L444.06,278.85L444.07,412.27L444.9,278.85L444.91,278.85L446.6,278.85L446.6,412.27L447.43,278.85L447.44,278.85L449.28,278.85L449.29,412.27L450.11,278.85L450.12,278.85L452.89,278.85L452.89,412.27L453.04,412.27L453.05,278.85L453.42,278.85L453.43,412.27L454.26,278.85L454.27,278.85L455.72,278.85L455.72,278.85L455.73,412.27L456.56,278.85L456.57,278.85L626.49,278.85" style="vector-effect: none; fill: none; stroke: rgb(0, 154, 250); stroke-opacity: 1; stroke-width: 1.8px; opacity: 1;"/></g><g class="points"/><g class="text"/></g><g class="trace scatter trace8dc12c" style="stroke-miterlimit: 2; opacity: 1;"><g class="fills"/><g class="errorbars"/><g class="lines"><path class="js-line" d="M18.25,278.85L99.09,278.85L99.09,278.85L99.1,145.43L99.93,278.85L99.94,278.85L100.09,278.85L100.1,145.43L100.92,278.85L100.93,278.85L101.47,278.85L101.48,145.43L102.24,278.85L102.25,145.43L102.85,278.85L103,145.43L103.01,145.43L103.01,278.85L103.76,278.85L103.77,278.85L104.39,278.85L104.39,145.43L104.54,145.43L104.55,278.85L104.85,145.43L105.3,278.85L105.31,278.85L105.84,145.43L106.06,278.85L106.07,278.85L106.23,145.43L106.82,278.85L106.83,278.85L107.76,278.85L107.77,145.43L107.92,145.43L107.92,278.85L108.53,145.43L108.67,278.85L108.68,278.85L109.37,145.43L109.43,278.85L109.44,278.85L110.28,145.43L110.29,145.43L111.13,278.85L111.14,278.85L111.14,145.43L111.89,145.43L111.9,145.43L112.21,145.43L112.22,278.85L113.05,145.43L113.05,145.43L113.06,278.85L113.82,145.43L113.83,278.85L113.98,278.85L113.98,145.43L114.36,278.85L114.73,145.43L114.74,145.43L114.9,145.43L114.9,278.85L115.51,145.43L115.65,278.85L115.66,278.85L116.42,145.43L116.43,145.43L117.04,145.43L117.04,145.43L117.05,278.85L117.88,145.43L117.89,145.43L118.81,145.43L118.82,278.85L119.64,145.43L119.64,145.43L119.65,145.43L119.96,145.43L119.97,278.85L120.79,145.43L120.79,145.43L120.8,145.43L122.18,145.43L122.18,145.43L122.19,278.85L123.02,145.43L123.03,145.43L123.56,145.43L123.56,145.43L123.57,278.85L123.79,278.85L123.79,278.85L123.8,145.43L126.17,145.43L126.18,278.85L127.08,145.43L127.09,145.43L440.84,145.43L440.85,12.01L441.68,145.43L441.69,145.43L442.22,145.43L442.22,145.43L442.23,12.01L443.06,145.43L443.07,145.43L443.99,145.43L443.99,12.01L444.82,145.43L444.82,145.43L444.83,145.43L446.37,145.43L446.37,12.01L447.28,145.43L447.29,145.43L447.52,145.43L447.52,12.01L448.35,145.43L448.36,145.43L449.82,145.43L449.82,12.01L450.65,145.43L450.65,145.43L450.66,145.43L451.27,145.43L451.27,145.43L451.28,12.01L451.89,145.43L452.03,12.01L452.04,12.01L452.88,145.43L452.89,145.43L453.04,145.43L453.05,12.01L453.73,145.43L453.8,12.01L453.81,12.01L454.5,145.43L454.56,12.01L454.57,12.01L455.19,145.43L455.32,12.01L455.33,12.01L455.95,145.43L456.08,12.01L456.09,12.01L456.8,145.43L456.84,12.01L456.85,12.01L457.1,12.01L457.1,12.01L457.11,145.43L457.64,12.01L457.86,145.43L457.87,145.43L458.18,145.43L458.19,12.01L458.49,12.01L458.49,145.43L459.25,12.01L459.25,12.01L459.26,145.43L459.48,145.43L459.48,145.43L459.49,12.01L460.25,12.01L460.26,145.43L461.09,12.01L461.09,12.01L461.1,145.43L461.93,12.01L461.94,12.01L462.32,12.01L462.33,145.43L463.01,12.01L463.08,145.43L463.09,145.43L463.92,12.01L463.92,12.01L463.93,12.01L464.77,145.43L464.78,145.43L464.93,145.43L464.94,12.01L465.32,12.01L465.33,145.43L466.22,12.01L466.23,12.01L466.85,12.01L466.85,145.43L467.68,12.01L467.68,12.01L467.69,12.01L467.92,145.43L468.44,12.01L468.45,12.01L469.22,145.43L469.23,145.43L470.06,12.01L470.07,12.01L470.22,12.01L470.23,145.43L470.99,12.01L471,145.43L471.82,12.01L471.83,12.01L474.06,12.01L474.07,145.43L474.89,12.01L474.89,12.01L474.9,12.01L475.21,12.01L475.22,145.43L476.04,12.01L476.04,12.01L476.05,12.01L481.42,12.01L481.43,145.43L482.26,12.01L482.27,12.01L482.27,145.43L483.02,12.01L483.03,12.01L626.49,12.01" style="vector-effect: none; fill: none; stroke: rgb(227, 111, 71); stroke-opacity: 1; stroke-width: 1.8px; opacity: 1;"/></g><g class="points"/><g class="text"/></g><g class="trace scatter trace74a325" style="stroke-miterlimit: 2; opacity: 1;"><g class="fills"/><g class="errorbars"/><g class="lines"><path class="js-line" d="M18.25,145.43L290.03,145.43L290.04,12.01L290.86,145.43L290.86,145.43L290.87,145.43L292.71,145.43L292.72,12.01L293.55,145.43L293.56,145.43L294.09,145.43L294.09,145.43L294.1,12.01L294.94,145.43L294.94,12.01L295.77,145.43L295.77,145.43L295.78,145.43L296.24,145.43L296.25,12.01L297.08,145.43L297.09,145.43L298.54,145.43L298.55,12.01L299.31,145.43L299.32,12.01L300.14,145.43L300.15,145.43L300.38,145.43L300.38,145.43L300.39,12.01L300.54,12.01L300.54,145.43L300.77,145.43L300.77,12.01L301.6,145.43L301.6,145.43L301.61,145.43L302.15,12.01L302.36,145.43L302.37,145.43L302.92,145.43L302.92,12.01L303.83,145.43L303.84,145.43L304.07,145.43L304.07,12.01L304.22,12.01L304.23,145.43L305.29,145.43L305.29,145.43L305.3,12.01L306.13,145.43L306.14,145.43L306.75,145.43L306.76,12.01L307.66,145.43L307.66,145.43L307.67,145.43L307.75,12.01L308.42,145.43L308.43,145.43L308.9,12.01L309.18,145.43L309.19,145.43L309.36,145.43L309.37,12.01L310.05,145.43L310.12,12.01L310.13,12.01L310.13,145.43L310.88,145.43L310.89,145.43L311.65,12.01L311.66,12.01L312.42,145.43L312.43,145.43L312.81,145.43L312.82,12.01L313.65,145.43L313.65,145.43L313.66,12.01L314.04,12.01L314.05,145.43L314.65,12.01L314.8,145.43L314.81,145.43L315.57,12.01L315.58,145.43L316.41,12.01L316.42,12.01L316.65,12.01L316.65,145.43L316.95,145.43L316.95,145.43L316.96,12.01L317.41,12.01L317.41,12.01L317.42,145.43L318.18,12.01L318.19,145.43L318.87,12.01L318.94,145.43L318.95,145.43L319.64,12.01L319.7,145.43L319.71,145.43L320.47,12.01L320.47,12.01L320.48,12.01L321.25,145.43L321.26,12.01L321.48,12.01L321.49,145.43L321.79,12.01L322.24,145.43L322.25,145.43L322.25,12.01L323,12.01L323.01,12.01L323.17,12.01L323.17,145.43L324,12.01L324,12.01L324.01,12.01L324.16,12.01L324.16,12.01L324.17,145.43L324.47,145.43L324.48,12.01L325.01,145.43L325.23,12.01L325.24,12.01L326,145.43L326.01,145.43L326.39,145.43L326.4,12.01L327.3,145.43L327.31,145.43L327.92,12.01L328.06,145.43L328.07,145.43L328.46,145.43L328.47,12.01L328.69,145.43L329.22,12.01L329.23,12.01L329.53,12.01L329.53,12.01L329.54,145.43L329.76,145.43L329.76,145.43L329.77,12.01L329.99,12.01L329.99,12.01L330,145.43L330.68,12.01L330.75,145.43L330.76,145.43L331.6,12.01L331.61,12.01L331.61,145.43L332.36,12.01L332.37,12.01L332.45,145.43L333.12,12.01L333.13,12.01L334.37,12.01L334.37,145.43L335.2,12.01L335.2,12.01L335.21,12.01L335.67,12.01L335.68,145.43L336.44,12.01L336.45,145.43L337.13,12.01L337.2,145.43L337.21,145.43L337.9,12.01L337.96,145.43L337.97,145.43L338.73,12.01L338.74,12.01L339.05,12.01L339.05,145.43L339.66,12.01L339.8,145.43L339.81,145.43L340.5,12.01L340.56,145.43L340.57,145.43L341.27,12.01L341.32,145.43L341.33,145.43L342.11,12.01L342.11,12.01L342.12,12.01L342.5,12.01L342.51,145.43L343.41,12.01L343.42,12.01L343.89,12.01L343.89,145.43L344.71,12.01L344.72,12.01L344.88,12.01L344.88,145.43L345.71,12.01L345.72,12.01L346.41,12.01L346.42,145.43L347.32,12.01L347.32,12.01L347.33,12.01L348.02,145.43L348.08,12.01L348.09,12.01L349.1,12.01L349.1,145.43L349.94,12.01L349.95,145.43L350.77,12.01L350.78,12.01L353.24,12.01L353.25,145.43L354.15,12.01L354.16,12.01L354.54,12.01L354.55,145.43L355.38,12.01L355.39,12.01L360.14,12.01L360.15,145.43L360.3,145.43L360.3,12.01L368.89,12.01L368.89,145.43L369.72,12.01L369.72,12.01L369.73,12.01L626.49,12.01" style="vector-effect: none; fill: none; stroke: rgb(62, 164, 78); stroke-opacity: 1; stroke-width: 1.8px; opacity: 1;"/></g><g class="points"/><g class="text"/></g><g class="trace scatter trace103b80" style="stroke-miterlimit: 2; opacity: 1;"><g class="fills"/><g class="errorbars"/><g class="lines"><path class="js-line" d="M18.25,412.27L94.18,412.27L94.18,412.27L94.19,278.85L95.02,412.27L95.03,412.27L95.56,412.27L95.56,412.27L95.57,278.85L96.4,412.27L96.41,412.27L96.72,412.27L96.72,278.85L96.95,278.85L96.95,412.27L97.1,278.85L97.7,412.27L97.71,412.27L97.94,412.27L97.95,278.85L98.78,412.27L98.79,412.27L98.79,278.85L99.54,412.27L99.55,412.27L101.62,412.27L101.62,412.27L101.63,278.85L101.85,278.85L101.85,278.85L101.86,412.27L102.01,412.27L102.02,278.85L102.84,412.27L102.84,412.27L102.85,412.27L103.61,278.85L103.62,278.85L104.38,412.27L104.39,412.27L104.69,412.27L104.69,412.27L104.7,278.85L105.38,412.27L105.45,278.85L105.46,278.85L106.22,412.27L106.23,412.27L106.46,278.85L106.98,412.27L106.99,412.27L107.45,278.85L107.74,412.27L107.75,412.27L108.22,278.85L108.5,412.27L108.51,412.27L109.29,278.85L109.3,278.85L109.3,412.27L110.05,278.85L110.06,278.85L110.52,412.27L110.81,278.85L110.82,278.85L111.37,278.85L111.37,412.27L111.6,412.27L111.6,278.85L112.29,412.27L112.35,278.85L112.36,278.85L112.44,412.27L113.11,278.85L113.12,278.85L115.28,278.85L115.29,412.27L116.19,278.85L116.2,278.85L118.65,278.85L118.65,278.85L118.66,412.27L119.49,278.85L119.5,278.85L119.58,412.27L120.25,278.85L120.26,278.85L448.36,278.85L448.37,145.43L449.19,278.85L449.2,278.85L449.82,278.85L449.82,145.43L450.65,278.85L450.65,278.85L450.66,278.85L453.19,278.85L453.2,145.43L454.03,278.85L454.04,278.85L458.64,278.85L458.65,145.43L459.47,278.85L459.48,278.85L460.94,278.85L460.95,145.43L461.77,278.85L461.78,278.85L462.24,145.43L462.53,278.85L462.54,278.85L463.16,278.85L463.16,278.85L463.17,145.43L463.93,278.85L463.94,145.43L464.77,278.85L464.78,278.85L465.24,278.85L465.24,145.43L465.4,145.43L465.4,278.85L466.22,145.43L466.23,145.43L467.07,278.85L467.08,278.85L467.08,145.43L467.83,278.85L467.84,278.85L468.23,278.85L468.24,145.43L469,278.85L469,145.43L469.69,278.85L469.75,145.43L469.76,145.43L470.22,145.43L470.23,278.85L470.99,145.43L471,278.85L471.22,278.85L471.23,145.43L471.99,278.85L471.99,145.43L472.22,145.43L472.22,278.85L472.68,145.43L472.97,278.85L472.98,278.85L473.37,145.43L473.73,278.85L473.74,278.85L474.51,145.43L474.52,145.43L474.98,145.43L474.99,278.85L475.81,145.43L475.81,145.43L475.82,145.43L475.98,145.43L475.98,278.85L476.74,145.43L476.74,145.43L476.75,278.85L477.58,145.43L477.59,145.43L477.89,145.43L477.89,145.43L477.9,278.85L478.73,145.43L478.74,145.43L479.12,278.85L479.49,145.43L479.5,145.43L479.73,145.43L479.73,145.43L479.74,278.85L480.5,145.43L480.51,278.85L481.34,145.43L481.35,145.43L481.88,145.43L481.89,278.85L482.72,145.43L482.73,145.43L483.11,145.43L483.12,278.85L483.94,145.43L483.95,145.43L484.72,145.43L484.73,278.85L485.56,145.43L485.56,145.43L485.57,145.43L488.1,145.43L488.1,278.85L488.93,145.43L488.94,145.43L489.71,145.43L489.71,278.85L489.94,278.85L489.94,145.43L490.32,145.43L490.33,278.85L491.01,145.43L491.08,278.85L491.09,278.85L491.92,145.43L491.92,145.43L491.93,145.43L492.39,145.43L492.4,278.85L493.23,145.43L493.24,145.43L626.49,145.43" style="vector-effect: none; fill: none; stroke: rgb(195, 113, 210); stroke-opacity: 1; stroke-width: 1.8px; opacity: 1;"/></g><g class="points"/><g class="text"/></g></g></g></g><path class="xlines-above crisp" d="M49.50059930008749,459.0214202391369H695.2388451443569" style="fill: none; stroke-width: 1px; stroke: rgb(0, 0, 0); stroke-opacity: 1;"/><path class="ylines-above crisp" d="M50.00059930008749,34.2470982793818V458.5214202391369" style="fill: none; stroke-width: 1px; stroke: rgb(0, 0, 0); stroke-opacity: 1;"/><g class="overlines-above"/><g class="xaxislayer-above"><path class="xtick ticks crisp" d="M0,458.5214202391369v-5" transform="translate(68.75059930008749,0)" style="stroke: rgb(0, 0, 0); stroke-opacity: 1; stroke-width: 1px;"/><path class="xtick ticks crisp" d="M0,458.5214202391369v-5" transform="translate(222.17059930008747,0)" style="stroke: rgb(0, 0, 0); stroke-opacity: 1; stroke-width: 1px;"/><path class="xtick ticks crisp" d="M0,458.5214202391369v-5" transform="translate(375.59059930008743,0)" style="stroke: rgb(0, 0, 0); stroke-opacity: 1; stroke-width: 1px;"/><path class="xtick ticks crisp" d="M0,458.5214202391369v-5" transform="translate(529.0105993000875,0)" style="stroke: rgb(0, 0, 0); stroke-opacity: 1; stroke-width: 1px;"/><path class="xtick ticks crisp" d="M0,458.5214202391369v-5" transform="translate(682.4405993000876,0)" style="stroke: rgb(0, 0, 0); stroke-opacity: 1; stroke-width: 1px;"/><g class="xtick"><text text-anchor="middle" x="0" y="472.7214202391369" transform="translate(68.75059930008749,0)" style="font-family: sans-serif; font-size: 11px; fill: rgb(0, 0, 0); fill-opacity: 1; white-space: pre; opacity: 1;">00:00</text></g><g class="xtick"><text text-anchor="middle" x="0" y="472.7214202391369" style="font-family: sans-serif; font-size: 11px; fill: rgb(0, 0, 0); fill-opacity: 1; white-space: pre; opacity: 1;" transform="translate(222.17059930008747,0)">33:20</text></g><g class="xtick"><text text-anchor="middle" x="0" y="472.7214202391369" style="font-family: sans-serif; font-size: 11px; fill: rgb(0, 0, 0); fill-opacity: 1; white-space: pre; opacity: 1;" transform="translate(375.59059930008743,0)">66:40</text></g><g class="xtick"><text text-anchor="middle" x="0" y="472.7214202391369" style="font-family: sans-serif; font-size: 11px; fill: rgb(0, 0, 0); fill-opacity: 1; white-space: pre; opacity: 1;" transform="translate(529.0105993000875,0)">100:00</text></g><g class="xtick"><text text-anchor="middle" x="0" y="472.7214202391369" style="font-family: sans-serif; font-size: 11px; fill: rgb(0, 0, 0); fill-opacity: 1; white-space: pre; opacity: 1;" transform="translate(682.4405993000876,0)">133:20</text></g></g><g class="yaxislayer-above"><path class="ytick ticks crisp" d="M50.50059930008749,0h5" transform="translate(0,446.5170982793818)" style="stroke: rgb(0, 0, 0); stroke-opacity: 1; stroke-width: 1px;"/><path class="ytick ticks crisp" d="M50.50059930008749,0h5" transform="translate(0,313.09709827938184)" style="stroke: rgb(0, 0, 0); stroke-opacity: 1; stroke-width: 1px;"/><path class="ytick ticks crisp" d="M50.50059930008749,0h5" transform="translate(0,179.67709827938182)" style="stroke: rgb(0, 0, 0); stroke-opacity: 1; stroke-width: 1px;"/><path class="ytick ticks crisp" d="M50.50059930008749,0h5" transform="translate(0,46.2570982793818)" style="stroke: rgb(0, 0, 0); stroke-opacity: 1; stroke-width: 1px;"/><g class="ytick"><text text-anchor="end" x="47.300599300087484" y="3.8499999999999996" transform="translate(0,446.5170982793818)" style="font-family: sans-serif; font-size: 11px; fill: rgb(0, 0, 0); fill-opacity: 1; white-space: pre; opacity: 1;">17.8</text></g><g class="ytick"><text text-anchor="end" x="47.300599300087484" y="3.8499999999999996" style="font-family: sans-serif; font-size: 11px; fill: rgb(0, 0, 0); fill-opacity: 1; white-space: pre; opacity: 1;" transform="translate(0,313.09709827938184)">17.9</text></g><g class="ytick"><text text-anchor="end" x="47.300599300087484" y="3.8499999999999996" style="font-family: sans-serif; font-size: 11px; fill: rgb(0, 0, 0); fill-opacity: 1; white-space: pre; opacity: 1;" transform="translate(0,179.67709827938182)">18.0</text></g><g class="ytick"><text text-anchor="end" x="47.300599300087484" y="3.8499999999999996" style="font-family: sans-serif; font-size: 11px; fill: rgb(0, 0, 0); fill-opacity: 1; white-space: pre; opacity: 1;" transform="translate(0,46.2570982793818)">18.1</text></g></g><g class="overaxes-above"/></g></g><g class="polarlayer"/><g class="smithlayer"/><g class="ternarylayer"/><g class="geolayer"/><g class="funnelarealayer"/><g class="pielayer"/><g class="iciclelayer"/><g class="treemaplayer"/><g class="sunburstlayer"/><g class="glimages"/><defs id="topdefs-1ea648"><g class="clips"/><clipPath id="legend1ea648"><rect width="90" height="86" x="1" y="1"/></clipPath></defs><g class="layer-above"><g class="imagelayer"/><g class="shapelayer"/></g><g class="infolayer"><g class="legend" pointer-events="all" transform="translate(605,20)"><rect class="bg" shape-rendering="crispEdges" width="91" height="87" x="0.5" y="0.5" style="stroke: rgb(0, 0, 0); stroke-opacity: 1; fill: rgb(255, 255, 255); fill-opacity: 1; stroke-width: 1px;"/><g class="scrollbox" transform="" clip-path="url(#legend1ea648)"><g class="groups"><g class="traces" transform="translate(1,15.5)" style="opacity: 1;"><text class="legendtext" text-anchor="start" x="40" y="4.29" style="font-family: sans-serif; font-size: 11px; fill: rgb(0, 0, 0); fill-opacity: 1; white-space: pre;">csca_t1[]</text><g class="layers" style="opacity: 1;"><g class="legendfill"/><g class="legendlines"><path class="js-line" d="M5,0h30" style="fill: none; stroke: rgb(0, 154, 250); stroke-opacity: 1; stroke-width: 1.8px;"/></g><g class="legendsymbols"><g class="legendpoints"/></g></g><rect class="legendtoggle" x="0" y="-9.5" width="84.03125" height="19" style="fill: rgb(0, 0, 0); fill-opacity: 0;"/></g><g class="traces" transform="translate(1,34.5)" style="opacity: 1;"><text class="legendtext" text-anchor="start" x="40" y="4.29" style="font-family: sans-serif; font-size: 11px; fill: rgb(0, 0, 0); fill-opacity: 1; white-space: pre;">csca_t2[]</text><g class="layers" style="opacity: 1;"><g class="legendfill"/><g class="legendlines"><path class="js-line" d="M5,0h30" style="fill: none; stroke: rgb(227, 111, 71); stroke-opacity: 1; stroke-width: 1.8px;"/></g><g class="legendsymbols"><g class="legendpoints"/></g></g><rect class="legendtoggle" x="0" y="-9.5" width="84.03125" height="19" style="fill: rgb(0, 0, 0); fill-opacity: 0;"/></g><g class="traces" transform="translate(1,53.5)" style="opacity: 1;"><text class="legendtext" text-anchor="start" x="40" y="4.29" style="font-family: sans-serif; font-size: 11px; fill: rgb(0, 0, 0); fill-opacity: 1; white-space: pre;">csca_t3[]</text><g class="layers" style="opacity: 1;"><g class="legendfill"/><g class="legendlines"><path class="js-line" d="M5,0h30" style="fill: none; stroke: rgb(62, 164, 78); stroke-opacity: 1; stroke-width: 1.8px;"/></g><g class="legendsymbols"><g class="legendpoints"/></g></g><rect class="legendtoggle" x="0" y="-9.5" width="84.03125" height="19" style="fill: rgb(0, 0, 0); fill-opacity: 0;"/></g><g class="traces" transform="translate(1,72.5)" style="opacity: 1;"><text class="legendtext" text-anchor="start" x="40" y="4.29" style="font-family: sans-serif; font-size: 11px; fill: rgb(0, 0, 0); fill-opacity: 1; white-space: pre;">csca_t4[]</text><g class="layers" style="opacity: 1;"><g class="legendfill"/><g class="legendlines"><path class="js-line" d="M5,0h30" style="fill: none; stroke: rgb(195, 113, 210); stroke-opacity: 1; stroke-width: 1.8px;"/></g><g class="legendsymbols"><g class="legendpoints"/></g></g><rect class="legendtoggle" x="0" y="-9.5" width="84.03125" height="19" style="fill: rgb(0, 0, 0); fill-opacity: 0;"/></g></g></g><rect class="scrollbar" rx="20" ry="3" width="0" height="0" x="0" y="0" style="fill: rgb(128, 139, 164); fill-opacity: 1;"/></g><g class="g-gtitle"/><g class="g-xtitle" transform="translate(0,-2.734375)"><text class="xtitle" x="372.8697222222222" y="499.734375" text-anchor="middle" style="opacity: 1; font-family: sans-serif; font-size: 15px; fill: rgb(0, 0, 0); fill-opacity: 1; white-space: pre;">Time</text></g><g class="g-ytitle" transform="translate(7.8681640625,0)"><text class="ytitle" transform="rotate(-90,6.140625,246.38425925925935)" x="6.140625" y="246.38425925925935" text-anchor="middle" style="opacity: 1; font-family: sans-serif; font-size: 15px; fill: rgb(0, 0, 0); fill-opacity: 1; white-space: pre;">Temperature in °C</text></g><g class="annotation" data-index="0" style="opacity: 1;"><g class="annotation-text-g" transform="rotate(0,372.8697222222222,33)"><g class="cursor-pointer" transform="translate(311,20)"><rect class="bg" x="0.5" y="0.5" width="123" height="25" style="stroke-width: 1px; stroke: rgb(0, 0, 0); stroke-opacity: 0; fill: rgb(0, 0, 0); fill-opacity: 0;"/><text class="annotation-text" text-anchor="middle" x="62.03125" y="20" style="font-family: sans-serif; font-size: 20px; fill: rgb(0, 0, 0); fill-opacity: 1; white-space: pre;">Democapture</text></g></g></g></g></svg>