<svg class="main-svg" xmlns="http://www.w3.org/2000/svg" xmlns:xlink="http://www.w3.org/1999/xlink" width="700" height="500" style="" viewBox="0 0 700 500"><rect x="0" y="0" width="700" height="500" style="fill: rgb(255, 255, 255); fill-opacity: 1;"/><defs id="defs-a75c90"><g class="clips"><clipPath id="clipa75c90xyplot" class="plotclip"><rect width="644.7382458442694" height="424.27432195975507"/></clipPath><clipPath class="axesclip" id="clipa75c90x"><rect x="50.50059930008749" y="0" width="644.7382458442694" height="500"/></clipPath><clipPath class="axesclip" id="clipa75c90y"><rect x="0" y="34.2470982793818" width="700" height="424.27432195975507"/></clipPath><clipPath class="axesclip" id="clipa75c90xy"><rect x="50.50059930008749" y="34.2470982793818" width="644.7382458442694" height="424.27432195975507"/></clipPath></g><g class="gradients"/><g class="patterns"/></defs><g class="bglayer"/><g class="layer-below"><g class="imagelayer"/><g class="shapelayer"/></g><g class="cartesianlayer"><g class="subplot xy"><g class="layer-subplot"><g class="shapelayer"/><g class="imagelayer"/></g><g class="minor-gridlayer"><g class="x"/><g class="y"/></g><g class="gridlayer"><g class="x"><path class="xgrid crisp" transform="translate(68.75059930008749,0)" d="M0,34.2470982793818v424.27432195975507" style="stroke: rgb(0, 0, 0); stroke-opacity: 0.1; stroke-width: 0.5px;"/><path class="xgrid crisp" transform="translate(222.17059930008747,0)" d="M0,34.2470982793818v424.27432195975507" style="stroke: rgb(0, 0, 0); stroke-opacity: 0.1; stroke-width: 0.5px;"/><path class="xgrid crisp" transform="translate(375.59059930008743,0)" d="M0,34.2470982793818v424.27432195975507" style="stroke: rgb(0, 0, 0); stroke-opacity: 0.1; stroke-width: 0.5px;"/><path class="xgrid crisp" transform="translate(529.0105993000875,0)" d="M0,34.2470982793818v424.27432195975507" style="stroke: rgb(0, 0, 0); stroke-opacity: 0.1; stroke-width: 0.5px;"/><path class="xgrid crisp" transform="translate(682.4405993000876,0)" d="M0,34.2470982793818v424.27432195975507" style="stroke: rgb(0, 0, 0); stroke-opacity: 0.1; stroke-width: 0.5px;"/></g><g class="y"><path class="ygrid crisp" transform="translate(0,446.5170982793818)" d="M50.50059930008749,0h644.7382458442694" style="stroke: rgb(0, 0, 0); stroke-opacity: 0.1; stroke-width: 0.5px;"/><path class="ygrid crisp" transform="translate(0,313.09709827938184)" d="M50.50059930008749,0h644.7382458442694" style="stroke: rgb(0, 0, 0); stroke-opacity: 0.1; stroke-width: 0.5px;"/><path class="ygrid crisp" transform="translate(0,179.67709827938182)" d="M50.50059930008749,0h644.7382458442694" style="stroke: rgb(0, 0, 0); stroke-opacity: 0.1; stroke-width: 0.5px;"/><path class="ygrid crisp" transform="translate(0,46.2570982793818)" d="M50.50059930008749,0h644.7382458442694" style="stroke: rgb(0, 0, 0); stroke-opacity: 0.1; stroke-width: 0.5px;"/></g></g><g class="zerolinelayer"/><g class="layer-between"><g class="shapelayer"/><g class="imagelayer"/></g><path class="xlines-below"/><path class="ylines-below"/><g class="overlines-below"/><g class="xaxislayer-below"/><g class="yaxislayer-below"/><g class="overaxes-below"/><g class="overplot"><g class="xy" transform="translate(50.50059930008749,34.2470982793818)" clip-path="url(#clipa75c90xyplot)"><g class="scatterlayer mlayer"><g class="trace scatter trace0d19b8" style="stroke-miterlimit: 2; opacity: 1;"><g class="fills"/><g class="errorbars"/><g class="lines"><path class="js-line" d="M18.25,412.27L378.41,412.27L378.48,278.85L379.25,412.27L379.33,412.27L386.84,412.27L386.92,278.85L387.69,412.27L387.77,412.27L390.91,412.27L390.99,278.85L391.6,412.27L391.68,278.85L391.75,278.85L392.52,412.27L392.6,412.27L393.44,412.27L393.52,278.85L394.36,412.27L394.44,412.27L395.21,412.27L395.28,278.85L396.13,412.27L396.2,412.27L397.43,412.27L397.51,278.85L398.27,412.27L398.35,412.27L398.74,412.27L398.81,278.85L399.58,412.27L399.66,412.27L399.96,278.85L400.35,412.27L400.42,412.27L400.73,412.27L400.81,278.85L401.65,412.27L401.73,412.27L402.8,412.27L402.88,278.85L403.72,412.27L403.8,412.27L404.03,278.85L404.49,412.27L404.57,412.27L405.03,412.27L405.1,278.85L405.26,278.85L405.33,412.27L405.72,412.27L405.79,278.85L406.64,412.27L406.71,412.27L407.17,412.27L407.25,278.85L408.02,412.27L408.09,278.85L408.25,278.85L408.32,412.27L408.48,412.27L408.55,278.85L409.32,412.27L409.4,412.27L409.55,412.27L409.63,278.85L409.86,278.85L409.94,412.27L410.63,278.85L410.7,412.27L411.39,412.27L411.47,278.85L412.24,412.27L412.31,412.27L412.47,412.27L412.54,278.85L413.23,412.27L413.31,278.85L414,412.27L414.08,278.85L414.84,412.27L414.92,412.27L415.61,278.85L415.69,412.27L416.46,278.85L416.53,412.27L417.15,412.27L417.22,278.85L417.99,412.27L418.07,278.85L418.83,412.27L418.91,278.85L419.68,412.27L419.75,412.27L420.06,412.27L420.14,278.85L420.9,412.27L420.98,278.85L421.21,412.27L421.67,278.85L421.75,278.85L422.44,412.27L422.52,278.85L422.82,278.85L422.9,412.27L423.28,412.27L423.36,278.85L423.9,412.27L424.05,278.85L424.13,278.85L424.97,412.27L425.05,412.27L425.74,278.85L425.81,412.27L426.35,278.85L426.5,412.27L426.58,412.27L427.04,278.85L427.27,412.27L427.35,412.27L428.04,278.85L428.12,412.27L428.88,278.85L428.96,278.85L429.34,278.85L429.42,412.27L430.11,278.85L430.19,412.27L430.95,278.85L431.03,412.27L431.8,278.85L431.87,412.27L432.64,278.85L432.72,412.27L433.33,278.85L433.41,412.27L433.49,412.27L434.18,278.85L434.25,412.27L434.94,278.85L435.02,412.27L435.79,278.85L435.86,278.85L436.17,278.85L436.25,412.27L437.01,278.85L437.09,278.85L437.47,412.27L437.78,278.85L437.86,278.85L438.55,412.27L438.63,278.85L439.16,412.27L439.32,278.85L439.39,278.85L440.16,412.27L440.24,278.85L440.93,278.85L441,412.27L441.77,278.85L441.85,278.85L443.23,278.85L443.3,412.27L443.99,278.85L444.07,412.27L444.84,278.85L444.92,278.85L446.53,278.85L446.6,412.27L447.37,278.85L447.45,278.85L449.21,278.85L449.29,412.27L450.06,278.85L450.13,278.85L452.82,278.85L452.89,412.27L453.74,278.85L453.81,278.85L455.65,278.85L455.73,412.27L456.5,278.85L456.58,278.85L626.49,278.85" style="vector-effect: none; fill: none; stroke: rgb(0, 154, 250); stroke-opacity: 1; stroke-width: 1.8px; opacity: 1;"/></g><g class="points"/><g class="text"/></g><g class="trace scatter trace20550d" style="stroke-miterlimit: 2; opacity: 1;"><g class="fills"/><g class="errorbars"/><g class="lines"><path class="js-line" d="M18.25,278.85L99.02,278.85L99.1,145.43L99.87,278.85L99.94,278.85L100.71,145.43L100.79,278.85L101.4,278.85L101.48,145.43L102.17,278.85L102.25,145.43L103.01,278.85L103.09,278.85L104.32,278.85L104.39,145.43L105.24,278.85L105.31,278.85L105.77,145.43L106,278.85L106.08,278.85L106.16,145.43L106.77,278.85L106.85,278.85L107.69,278.85L107.77,145.43L108.61,278.85L108.69,145.43L108.84,145.43L108.92,278.85L109.53,145.43L109.61,278.85L109.69,278.85L109.99,278.85L110.07,145.43L110.3,145.43L110.38,278.85L110.61,278.85L110.68,145.43L111.3,278.85L111.37,145.43L111.45,145.43L112.22,278.85L112.3,145.43L113.06,278.85L113.14,145.43L113.29,145.43L113.37,278.85L114.06,145.43L114.14,278.85L114.83,145.43L114.9,278.85L115.75,145.43L115.82,145.43L116.05,278.85L116.51,145.43L116.59,145.43L116.97,145.43L117.05,278.85L117.82,145.43L117.9,145.43L118.74,145.43L118.82,278.85L119.58,145.43L119.66,145.43L119.89,145.43L119.97,278.85L120.73,145.43L120.81,145.43L122.11,145.43L122.19,278.85L122.96,145.43L123.03,145.43L123.5,145.43L123.57,278.85L123.73,278.85L123.8,145.43L126.1,145.43L126.18,278.85L127.02,145.43L127.1,145.43L440.77,145.43L440.85,12.01L441.62,145.43L441.69,145.43L442.15,145.43L442.23,12.01L443,145.43L443.07,145.43L443.92,145.43L443.99,12.01L444.76,145.43L444.84,145.43L446.3,145.43L446.37,12.01L447.22,145.43L447.29,145.43L447.45,145.43L447.52,12.01L448.29,145.43L448.37,145.43L449.75,145.43L449.82,12.01L450.59,145.43L450.67,145.43L451.21,145.43L451.28,12.01L451.82,145.43L451.97,12.01L452.05,12.01L452.82,145.43L452.89,145.43L453.51,12.01L453.58,145.43L453.66,145.43L454.27,12.01L454.35,145.43L454.43,145.43L455.19,12.01L455.27,12.01L455.89,145.43L455.96,12.01L456.04,12.01L456.73,145.43L456.81,12.01L457.04,12.01L457.11,145.43L457.57,12.01L457.8,145.43L457.88,145.43L458.11,145.43L458.19,12.01L458.42,12.01L458.49,145.43L459.18,12.01L459.26,145.43L459.41,145.43L459.49,12.01L460.18,12.01L460.26,145.43L461.02,12.01L461.1,145.43L461.87,12.01L461.95,12.01L462.25,12.01L462.33,145.43L462.94,12.01L463.02,145.43L463.1,145.43L463.86,12.01L463.94,12.01L464.71,145.43L464.78,145.43L465.47,12.01L465.55,145.43L466.32,12.01L466.39,12.01L466.78,12.01L466.85,145.43L467.62,12.01L467.7,12.01L468.47,145.43L468.54,12.01L468.7,12.01L468.77,145.43L468.93,145.43L469,12.01L469.23,145.43L469.69,12.01L469.77,12.01L470.15,12.01L470.23,145.43L470.92,12.01L471,145.43L471.76,12.01L471.84,12.01L473.99,12.01L474.07,145.43L474.83,12.01L474.91,12.01L475.14,12.01L475.22,145.43L475.98,12.01L476.06,12.01L481.35,12.01L481.43,145.43L482.2,12.01L482.27,145.43L483.04,12.01L483.12,12.01L626.49,12.01" style="vector-effect: none; fill: none; stroke: rgb(227, 111, 71); stroke-opacity: 1; stroke-width: 1.8px; opacity: 1;"/></g><g class="points"/><g class="text"/></g><g class="trace scatter traced1fbab" style="stroke-miterlimit: 2; opacity: 1;"><g class="fills"/><g class="errorbars"/><g class="lines"><path class="js-line" d="M18.25,145.43L289.96,145.43L290.04,12.01L290.8,145.43L290.88,145.43L292.64,145.43L292.72,12.01L293.49,145.43L293.56,145.43L294.02,145.43L294.1,12.01L294.87,145.43L294.94,12.01L295.71,145.43L295.79,145.43L296.17,145.43L296.25,12.01L297.02,145.43L297.09,145.43L298.47,145.43L298.55,12.01L299.24,145.43L299.32,12.01L300.08,145.43L300.16,145.43L300.77,12.01L300.85,145.43L300.93,145.43L301.24,145.43L301.31,12.01L302,145.43L302.08,12.01L302.85,145.43L302.92,12.01L303.77,145.43L303.84,145.43L304,145.43L304.07,12.01L304.92,145.43L304.99,145.43L305.22,145.43L305.3,12.01L306.07,145.43L306.14,145.43L306.68,145.43L306.76,12.01L307.6,145.43L307.68,12.01L308.45,145.43L308.52,12.01L309.29,145.43L309.37,12.01L310.13,145.43L310.21,12.01L310.82,145.43L310.9,12.01L310.98,12.01L311.74,145.43L311.82,145.43L312.13,145.43L312.2,12.01L313.05,145.43L313.13,12.01L313.43,12.01L313.51,145.43L314.2,12.01L314.28,145.43L314.51,145.43L314.58,12.01L315.27,145.43L315.35,12.01L316.04,145.43L316.12,12.01L316.58,12.01L316.65,145.43L316.88,145.43L316.96,12.01L317.34,12.01L317.42,145.43L318.11,12.01L318.19,145.43L318.96,12.01L319.03,145.43L319.42,145.43L319.49,12.01L319.95,145.43L320.18,12.01L320.26,12.01L320.49,12.01L320.57,145.43L321.33,12.01L321.41,12.01L322.18,145.43L322.25,12.01L322.48,12.01L322.56,145.43L323.48,12.01L323.56,12.01L324.33,145.43L324.4,145.43L325.17,12.01L325.25,145.43L325.55,12.01L325.94,145.43L326.01,145.43L326.32,145.43L326.4,12.01L327.24,145.43L327.32,12.01L327.55,12.01L327.62,145.43L327.85,12.01L328.31,145.43L328.39,145.43L329.16,12.01L329.23,12.01L329.46,12.01L329.54,145.43L329.7,145.43L329.77,12.01L329.93,12.01L330,145.43L330.62,12.01L330.69,145.43L330.77,145.43L331.54,12.01L331.61,145.43L332.3,12.01L332.38,145.43L333.15,12.01L333.22,12.01L334.3,12.01L334.37,145.43L335.14,12.01L335.22,12.01L335.6,12.01L335.68,145.43L336.37,12.01L336.45,145.43L337.06,12.01L337.14,145.43L337.21,145.43L337.98,12.01L338.06,12.01L338.21,145.43L338.75,12.01L338.82,12.01L338.98,12.01L339.05,145.43L339.82,12.01L339.9,145.43L340.66,12.01L340.74,12.01L341.43,145.43L341.51,12.01L342.43,12.01L342.51,145.43L343.35,12.01L343.43,12.01L343.81,12.01L343.89,145.43L344.65,12.01L344.73,12.01L344.88,145.43L345.42,12.01L345.5,12.01L346.34,12.01L346.42,145.43L347.26,12.01L347.34,145.43L348.11,12.01L348.18,12.01L349.03,12.01L349.1,145.43L349.87,12.01L349.95,145.43L350.71,12.01L350.79,12.01L353.17,12.01L353.25,145.43L354.09,12.01L354.17,12.01L354.47,12.01L354.55,145.43L355.32,12.01L355.39,12.01L360.07,12.01L360.15,145.43L360.99,12.01L361.07,12.01L368.82,12.01L368.89,145.43L369.66,12.01L369.74,12.01L626.49,12.01" style="vector-effect: none; fill: none; stroke: rgb(62, 164, 78); stroke-opacity: 1; stroke-width: 1.8px; opacity: 1;"/></g><g class="points"/><g class="text"/></g><g class="trace scatter trace2af8b9" style="stroke-miterlimit: 2; opacity: 1;"><g class="fills"/><g class="errorbars"/><g class="lines"><path class="js-line" d="M18.25,412.27L94.11,412.27L94.19,278.85L94.96,412.27L95.04,412.27L95.5,412.27L95.57,278.85L96.34,412.27L96.42,412.27L96.65,412.27L96.72,278.85L96.88,278.85L96.95,412.27L97.03,278.85L97.64,412.27L97.72,412.27L97.87,412.27L97.95,278.85L98.72,412.27L98.79,278.85L98.95,278.85L99.02,412.27L101.56,412.27L101.63,278.85L101.79,278.85L101.86,412.27L102.02,278.85L102.55,412.27L102.63,412.27L102.78,412.27L102.86,278.85L103.7,412.27L103.78,412.27L103.93,412.27L104.01,278.85L104.62,412.27L104.7,278.85L104.78,278.85L105.47,412.27L105.54,278.85L105.7,278.85L105.77,412.27L106.16,412.27L106.24,278.85L106.39,278.85L106.47,412.27L106.93,412.27L107,278.85L107.39,278.85L107.46,412.27L107.69,412.27L107.77,278.85L108.46,412.27L108.54,278.85L108.84,278.85L108.92,412.27L109.61,278.85L109.69,412.27L110.38,278.85L110.45,412.27L111.22,278.85L111.3,278.85L111.99,412.27L112.07,278.85L112.37,412.27L112.76,278.85L112.83,278.85L115.21,278.85L115.29,412.27L116.13,278.85L116.21,278.85L118.59,278.85L118.66,412.27L119.43,278.85L119.51,412.27L120.27,278.85L120.35,278.85L448.29,278.85L448.37,145.43L449.13,278.85L449.21,278.85L449.75,278.85L449.82,145.43L450.59,278.85L450.67,278.85L453.12,278.85L453.2,145.43L453.97,278.85L454.04,278.85L458.57,278.85L458.65,145.43L459.41,278.85L459.49,278.85L460.87,278.85L460.95,145.43L461.72,278.85L461.79,145.43L461.95,145.43L462.02,278.85L462.18,145.43L462.71,278.85L462.79,278.85L463.1,278.85L463.17,145.43L463.86,278.85L463.94,145.43L464.71,278.85L464.78,278.85L465.17,278.85L465.24,145.43L466.01,278.85L466.09,145.43L466.24,145.43L466.32,278.85L467.08,145.43L467.16,278.85L467.7,145.43L467.85,278.85L467.93,278.85L468.16,278.85L468.24,145.43L468.93,278.85L469,145.43L469.62,278.85L469.69,145.43L469.77,145.43L470.15,145.43L470.23,278.85L470.92,145.43L471,278.85L471.61,145.43L471.69,278.85L471.76,278.85L471.92,278.85L471.99,145.43L472.15,145.43L472.22,278.85L472.61,145.43L472.91,278.85L472.99,278.85L473.76,145.43L473.84,145.43L473.99,145.43L474.07,278.85L474.83,145.43L474.91,145.43L475.6,278.85L475.68,145.43L475.91,145.43L475.98,278.85L476.67,145.43L476.75,278.85L477.52,145.43L477.59,145.43L477.82,145.43L477.9,278.85L478.67,145.43L478.75,278.85L479.59,145.43L479.67,145.43L480.13,278.85L480.36,145.43L480.43,145.43L480.51,278.85L481.12,145.43L481.2,145.43L481.81,145.43L481.89,278.85L482.66,145.43L482.73,145.43L483.04,145.43L483.12,278.85L483.88,145.43L483.96,145.43L484.65,145.43L484.73,278.85L485.5,145.43L485.57,145.43L488.03,145.43L488.1,278.85L488.87,145.43L488.95,145.43L489.64,145.43L489.71,278.85L489.87,278.85L489.94,145.43L490.25,145.43L490.33,278.85L490.94,145.43L491.02,278.85L491.1,278.85L491.86,145.43L491.94,145.43L492.32,145.43L492.4,278.85L493.17,145.43L493.24,145.43L626.49,145.43" style="vector-effect: none; fill: none; stroke: rgb(195, 113, 210); stroke-opacity: 1; stroke-width: 1.8px; opacity: 1;"/></g><g class="points"/><g class="text"/></g></g></g></g><path class="xlines-above crisp" d="M49.50059930008749,459.0214202391369H695.2388451443569" style="fill: none; stroke-width: 1px; stroke: rgb(0, 0, 0); stroke-opacity: 1;"/><path class="ylines-above crisp" d="M50.00059930008749,34.2470982793818V458.5214202391369" style="fill: none; stroke-width: 1px; stroke: rgb(0, 0, 0); stroke-opacity: 1;"/><g class="overlines-above"/><g class="xaxislayer-above"><path class="xtick ticks crisp" d="M0,458.5214202391369v-5" transform="translate(68.75059930008749,0)" style="stroke: rgb(0, 0, 0); stroke-opacity: 1; stroke-width: 1px;"/><path class="xtick ticks crisp" d="M0,458.5214202391369v-5" transform="translate(222.17059930008747,0)" style="stroke: rgb(0, 0, 0); stroke-opacity: 1; stroke-width: 1px;"/><path class="xtick ticks crisp" d="M0,458.5214202391369v-5" transform="translate(375.59059930008743,0)" style="stroke: rgb(0, 0, 0); stroke-opacity: 1; stroke-width: 1px;"/><path class="xtick ticks crisp" d="M0,458.5214202391369v-5" transform="translate(529.0105993000875,0)" style="stroke: rgb(0, 0, 0); stroke-opacity: 1; stroke-width: 1px;"/><path class="xtick ticks crisp" d="M0,458.5214202391369v-5" transform="translate(682.4405993000876,0)" style="stroke: rgb(0, 0, 0); stroke-opacity: 1; stroke-width: 1px;"/><g class="xtick"><text text-anchor="middle" x="0" y="472.7214202391369" transform="translate(68.75059930008749,0)" style="font-family: sans-serif; font-size: 11px; fill: rgb(0, 0, 0); fill-opacity: 1; white-space: pre; opacity: 1;">00:00</text></g><g class="xtick"><text text-anchor="middle" x="0" y="472.7214202391369" style="font-family: sans-serif; font-size: 11px; fill: rgb(0, 0, 0); fill-opacity: 1; white-space: pre; opacity: 1;" transform="translate(222.17059930008747,0)">33:20</text></g><g class="xtick"><text text-anchor="middle" x="0" y="472.7214202391369" style="font-family: sans-serif; font-size: 11px; fill: rgb(0, 0, 0); fill-opacity: 1; white-space: pre; opacity: 1;" transform="translate(375.59059930008743,0)">66:40</text></g><g class="xtick"><text text-anchor="middle" x="0" y="472.7214202391369" style="font-family: sans-serif; font-size: 11px; fill: rgb(0, 0, 0); fill-opacity: 1; white-space: pre; opacity: 1;" transform="translate(529.0105993000875,0)">100:00</text></g><g class="xtick"><text text-anchor="middle" x="0" y="472.7214202391369" style="font-family: sans-serif; font-size: 11px; fill: rgb(0, 0, 0); fill-opacity: 1; white-space: pre; opacity: 1;" transform="translate(682.4405993000876,0)">133:20</text></g></g><g class="yaxislayer-above"><path class="ytick ticks crisp" d="M50.50059930008749,0h5" transform="translate(0,446.5170982793818)" style="stroke: rgb(0, 0, 0); stroke-opacity: 1; stroke-width: 1px;"/><path class="ytick ticks crisp" d="M50.50059930008749,0h5" transform="translate(0,313.09709827938184)" style="stroke: rgb(0, 0, 0); stroke-opacity: 1; stroke-width: 1px;"/><path class="ytick ticks crisp" d="M50.50059930008749,0h5" transform="translate(0,179.67709827938182)" style="stroke: rgb(0, 0, 0); stroke-opacity: 1; stroke-width: 1px;"/><path class="ytick ticks crisp" d="M50.50059930008749,0h5" transform="translate(0,46.2570982793818)" style="stroke: rgb(0, 0, 0); stroke-opacity: 1; stroke-width: 1px;"/><g class="ytick"><text text-anchor="end" x="47.300599300087484" y="3.8499999999999996" transform="translate(0,446.5170982793818)" style="font-family: sans-serif; font-size: 11px; fill: rgb(0, 0, 0); fill-opacity: 1; white-space: pre; opacity: 1;">17.8</text></g><g class="ytick"><text text-anchor="end" x="47.300599300087484" y="3.8499999999999996" style="font-family: sans-serif; font-size: 11px; fill: rgb(0, 0, 0); fill-opacity: 1; white-space: pre; opacity: 1;" transform="translate(0,313.09709827938184)">17.9</text></g><g class="ytick"><text text-anchor="end" x="47.300599300087484" y="3.8499999999999996" style="font-family: sans-serif; font-size: 11px; fill: rgb(0, 0, 0); fill-opacity: 1; white-space: pre; opacity: 1;" transform="translate(0,179.67709827938182)">18.0</text></g><g class="ytick"><text text-anchor="end" x="47.300599300087484" y="3.8499999999999996" style="font-family: sans-serif; font-size: 11px; fill: rgb(0, 0, 0); fill-opacity: 1; white-space: pre; opacity: 1;" transform="translate(0,46.2570982793818)">18.1</text></g></g><g class="overaxes-above"/></g></g><g class="polarlayer"/><g class="smithlayer"/><g class="ternarylayer"/><g class="geolayer"/><g class="funnelarealayer"/><g class="pielayer"/><g class="iciclelayer"/><g class="treemaplayer"/><g class="sunburstlayer"/><g class="glimages"/><defs id="topdefs-a75c90"><g class="clips"/><clipPath id="legenda75c90"><rect width="90" height="86" x="1" y="1"/></clipPath></defs><g class="layer-above"><g class="imagelayer"/><g class="shapelayer"/></g><g class="infolayer"><g class="legend" pointer-events="all" transform="translate(605,20)"><rect class="bg" shape-rendering="crispEdges" width="91" height="87" x="0.5" y="0.5" style="stroke: rgb(0, 0, 0); stroke-opacity: 1; fill: rgb(255, 255, 255); fill-opacity: 1; stroke-width: 1px;"/><g class="scrollbox" transform="" clip-path="url(#legenda75c90)"><g class="groups"><g class="traces" transform="translate(1,15.5)" style="opacity: 1;"><text class="legendtext" text-anchor="start" x="40" y="4.29" style="font-family: sans-serif; font-size: 11px; fill: rgb(0, 0, 0); fill-opacity: 1; white-space: pre;">csca_t1[]</text><g class="layers" style="opacity: 1;"><g class="legendfill"/><g class="legendlines"><path class="js-line" d="M5,0h30" style="fill: none; stroke: rgb(0, 154, 250); stroke-opacity: 1; stroke-width: 1.8px;"/></g><g class="legendsymbols"><g class="legendpoints"/></g></g><rect class="legendtoggle" x="0" y="-9.5" width="84.03125" height="19" style="fill: rgb(0, 0, 0); fill-opacity: 0;"/></g><g class="traces" transform="translate(1,34.5)" style="opacity: 1;"><text class="legendtext" text-anchor="start" x="40" y="4.29" style="font-family: sans-serif; font-size: 11px; fill: rgb(0, 0, 0); fill-opacity: 1; white-space: pre;">csca_t2[]</text><g class="layers" style="opacity: 1;"><g class="legendfill"/><g class="legendlines"><path class="js-line" d="M5,0h30" style="fill: none; stroke: rgb(227, 111, 71); stroke-opacity: 1; stroke-width: 1.8px;"/></g><g class="legendsymbols"><g class="legendpoints"/></g></g><rect class="legendtoggle" x="0" y="-9.5" width="84.03125" height="19" style="fill: rgb(0, 0, 0); fill-opacity: 0;"/></g><g class="traces" transform="translate(1,53.5)" style="opacity: 1;"><text class="legendtext" text-anchor="start" x="40" y="4.29" style="font-family: sans-serif; font-size: 11px; fill: rgb(0, 0, 0); fill-opacity: 1; white-space: pre;">csca_t3[]</text><g class="layers" style="opacity: 1;"><g class="legendfill"/><g class="legendlines"><path class="js-line" d="M5,0h30" style="fill: none; stroke: rgb(62, 164, 78); stroke-opacity: 1; stroke-width: 1.8px;"/></g><g class="legendsymbols"><g class="legendpoints"/></g></g><rect class="legendtoggle" x="0" y="-9.5" width="84.03125" height="19" style="fill: rgb(0, 0, 0); fill-opacity: 0;"/></g><g class="traces" transform="translate(1,72.5)" style="opacity: 1;"><text class="legendtext" text-anchor="start" x="40" y="4.29" style="font-family: sans-serif; font-size: 11px; fill: rgb(0, 0, 0); fill-opacity: 1; white-space: pre;">csca_t4[]</text><g class="layers" style="opacity: 1;"><g class="legendfill"/><g class="legendlines"><path class="js-line" d="M5,0h30" style="fill: none; stroke: rgb(195, 113, 210); stroke-opacity: 1; stroke-width: 1.8px;"/></g><g class="legendsymbols"><g class="legendpoints"/></g></g><rect class="legendtoggle" x="0" y="-9.5" width="84.03125" height="19" style="fill: rgb(0, 0, 0); fill-opacity: 0;"/></g></g></g><rect class="scrollbar" rx="20" ry="3" width="0" height="0" x="0" y="0" style="fill: rgb(128, 139, 164); fill-opacity: 1;"/></g><g class="g-gtitle"/><g class="g-xtitle" transform="translate(0,-2.734375)"><text class="xtitle" x="372.8697222222222" y="499.734375" text-anchor="middle" style="opacity: 1; font-family: sans-serif; font-size: 15px; fill: rgb(0, 0, 0); fill-opacity: 1; white-space: pre;">Time</text></g><g class="g-ytitle" transform="translate(7.8681640625,0)"><text class="ytitle" transform="rotate(-90,6.140625,246.38425925925935)" x="6.140625" y="246.38425925925935" text-anchor="middle" style="opacity: 1; font-family: sans-serif; font-size: 15px; fill: rgb(0, 0, 0); fill-opacity: 1; white-space: pre;">Temperature in °C</text></g><g class="annotation" data-index="0" style="opacity: 1;"><g class="annotation-text-g" transform="rotate(0,372.8697222222222,33)"><g class="cursor-pointer" transform="translate(311,20)"><rect class="bg" x="0.5" y="0.5" width="123" height="25" style="stroke-width: 1px; stroke: rgb(0, 0, 0); stroke-opacity: 0; fill: rgb(0, 0, 0); fill-opacity: 0;"/><text class="annotation-text" text-anchor="middle" x="62.03125" y="20" style="font-family: sans-serif; font-size: 20px; fill: rgb(0, 0, 0); fill-opacity: 1; white-space: pre;">Democapture</text></g></g></g></g></svg>